<?xml version="1.0" encoding="utf-8"?>
<!-- Generator: Adobe Illustrator 24.2.3, SVG Export Plug-In . SVG Version: 6.00 Build 0)  -->
<svg version="1.1" id="Layer_1" xmlns="http://www.w3.org/2000/svg" xmlns:xlink="http://www.w3.org/1999/xlink" x="0px" y="0px"
	 viewBox="0 0 1000 201" style="enable-background:new 0 0 1000 201;" xml:space="preserve">
<style type="text/css">
	.st0{fill:#231F20;stroke:#000000;stroke-width:0.5;stroke-linecap:round;stroke-linejoin:round;stroke-miterlimit:10;}
</style>
<g>
	<path d="M26.3,101.3c0.4-4.1,0.3-8.4,1.5-12.2c1.7-5.3,2.9-11,6.7-15.4c2.9-3.4,5.6-7.1,8.8-10.2c2-1.9,1.4-2.9,0.1-4.5
		c-5.9-7.4-11.6-14.9-17.5-22.2c-1.6-2-1.6-3.2,0.5-4.8c4.5-3.5,8.9-7.1,13.4-10.6c1.4-1.1,2-2.2,2.1-3.9c0.1-0.9,0.9-2.2,1.5-2.3
		c1.3-0.2,3.4-0.3,4.1,0.5c4.3,4.9,8.4,10,12.4,15.1c3.2,4.2,6.1,8.6,9.4,12.8c1.3,1.7,3.4,2.3,5.7,1.5c3.2-1.1,6.4-2.3,9.7-2.9
		c5.1-0.9,10.3-1,15.3-2.1c5.4-1.1,10.8-2,16-0.6c5.9,1.6,12.4,0.5,18,3.9c1.9,1.2,4.6,1.1,7-0.9c4.6-3.8,9.8-6.8,14.5-10.5
		c5.5-4.2,10.9-8.7,16.2-13.2c2.6-2.2,7.3-2.2,9.3,1c2.5,4.2,5.8,8,9,11.7c0.8,0.9,2.3,1.2,3.5,1.8c2.6,1.4,2.8,3.8,0.5,5.5
		c-7,5.1-14.1,10.3-21,15.5c-3.4,2.6-3.2,5.7-0.1,8.5c3.9,3.6,7.9,7.2,11.4,11.3c2.1,2.5,3.3,5.8,4.7,8.8c1.6,3.5,3.3,7.1,4.3,10.9
		c0.8,2.9,0.7,6,0.8,9c0.1,1.3-0.3,2.7-0.2,4c0.5,5.2-1.2,9.8-3.8,14.1c-0.1,0.2-0.3,0.5-0.3,0.7c-0.9,7.6-6.4,12.3-11.2,17.3
		c-1.7,1.8-1.5,3.7-0.6,4.9c2.7,4,5.8,7.8,8.9,11.6c2.6,3.2,5.4,6.2,7.9,9.5c0.5,0.7,0.3,2.7-0.3,3.4c-1.5,1.7-3.4,3-5.2,4.4
		c-4.5,3.5-10,5.8-12.5,11.6c-0.4,0.9-2.1,1.4-3.2,1.6c-0.6,0.1-1.6-0.7-2-1.4c-2.5-3.6-4.8-7.3-7.3-10.8c-2.4-3.3-5.1-6.4-7.7-9.7
		c-1.2-1.5-2.1-3.2-3.5-4.5c-1.3-1.3-2.9-1.9-5-1.1c-5.6,2-11.2,4.5-17,5.4c-10.1,1.6-20.3,2.1-30.5,0.9c-3.3-0.4-6.6-0.5-9.8-1.2
		c-2.9-0.6-6-1.2-8.3-2.8c-3.2-2.2-5.4-0.7-7.7,1c-5.5,4-11,8.2-16.5,12.3c-3.3,2.5-6.6,5.2-9.9,7.7c-0.9,0.7-2,1.2-3,1.8
		c-2.6,1.6-4,1.3-5.6-1.2c-2.3-3.7-4.6-7.4-8.3-9.9c-0.4-0.3-0.6-0.8-0.8-1.3c-0.6-2.3-2-3.6-4.5-3.5c-0.8,0-1.5-0.4-2.3-0.7
		c-1.7-0.6-1.6-1.6-0.4-2.6c4-3,8.3-5.7,11.9-9.1c3.3-3.1,7.6-4.5,10.7-7.9c1.5-1.6,8-5.8,10.3-7.9c2.5-2.3,5.4-4.3,8.1-6.3
		c3.4-2.5,6.8-5,10.1-7.5c1.6-1.2,3.1-2.7,4.7-3.9c6.6-5.2,13.3-10.4,19.9-15.6c1.3-1,2.8-1.8,3.9-3c1-1,2.3-2.5,2.1-3.4
		c-0.4-1.9-1.7-3.6-2.8-5.3c-0.6-0.9-1.6-1.7-2.6-2.3c-0.6-0.4-1.8-0.6-2.2-0.2c-3,2.3-5.9,4.8-8.9,7.2c-1.9,1.5-3.7,3.2-5.7,4.5
		c-1.9,1.2-4.9,0.2-6.2-1.6c-3.3-4.5-6.8-9-10.2-13.5c-4.2-5.6-8.3-11.2-12.5-16.7c-1.7-2.1-3.5-4.2-5.5-6c-1.3-1.3-2.5-1.2-4.3,0.3
		c-4.6,4-7.6,9.2-10.5,14.4c-1.4,2.5-2.6,5.4-3,8.2c-1.2,9-2.1,18,0.7,26.8c0.8,2.7,2.6,5.1,4,7.7c1,1.8,2.2,3.4,3,5.3
		c1.1,2.8,3.3,4.5,5.2,6.6c0.6,0.7,0.9,1.8,1.3,2.7c-1.1,0-2.2,0.2-3.2-0.1c-0.6-0.2-1.2-0.9-1.6-1.5c-2.9-4.2-5.8-8.5-8.6-12.8
		c-0.2-0.3-0.5-0.7-0.5-1.1C29.7,115.2,24.7,109,26.3,101.3z M189.7,101.4c0.1,0,0.3-0.1,0.4-0.1c-0.2-2.2-0.2-4.5-0.5-6.6
		c-0.4-2.9-0.6-6-1.8-8.5c-2.2-4.6-5.1-8.8-7.8-13.2c-0.4-0.7-1.1-1.4-1.7-2c-3.4-3.4-7-6.7-10.3-10.2c-1.1-1.2-1.6-1-2.8-0.3
		c-3.8,2.3-6.6,5.9-10.7,7.9c-4.6,2.3-8.4,6.3-12.6,9.4c-1.5,1.2-3.3,2-4.7,3.2c-2.8,2.4-5.5,5-8.3,7.5c-3.7,3.2-7.5,6.3-11.3,9.5
		c-2.2,1.8-2.2,4-1,6.3c0.5,0.9,1.2,1.7,1.7,2.6c1.7,2.8,3.6,3.3,6,1.3c3.7-3.1,7.4-6.2,11-9.4c2.3-2,5.2-2.4,7.4-0.3
		c2.6,2.6,5.7,5.2,7.2,8.4c2.6,5.7,7.3,9.6,10.6,14.7c3.3,5.2,8.3,9.2,11.1,14.9c1.1,2.3,4.3,2.7,5.6,1c6.1-7.7,11.9-15.4,12.5-25.8
		c0-0.9,0.5-1.8,0.7-2.7c0.2-1.7,0.5-3.5,0.4-5.2C190.7,103.2,190.1,102.3,189.7,101.4z M112.5,163.8c5.4-1.1,10.9,0.8,16.3-1.5
		c4.5-1.9,9.6-2.4,14.4-3.5c0.9-0.2,1.8-0.4,2.7-0.8c2.3-1.1,2.8-3.2,1.2-5.1c-1.7-2.1-3.5-4.1-5.1-6.2c-2.5-3.5-4.6-7.3-7.3-10.6
		c-3.5-4.3-7-8.5-10.2-13.1c-3.8-5.5-7.8-10.9-11.9-16.1c-0.8-1-3.4-1.8-4.2-1.2c-2.4,1.5-4.9,3.3-6.2,5.7c-1.1,2,0.7,5.4,2.3,6.3
		c4.4,2.6,5.4,7.6,8.8,10.7c2.1,1.9,0.9,3-0.5,4c-2.9,2.1-4.4,6.2-8.7,6.5c-0.2,0-0.4,0.7-0.7,0.9c-2.8,1.7-4.9,4-7.1,6.3
		c-2.9,3-6.8,4.9-10.1,7.5c-1.2,0.9-2.3,2.2-3,3.5c-0.3,0.5,0.3,2.1,1,2.4c1.8,0.8,3.8,1.5,5.8,1.8c6.4,1.2,12.8,3.1,19.4,2.6
		C110.4,163.7,111.5,163.8,112.5,163.8z M110.2,40.7c-7.5,0.7-14.8,1.1-21.9,3.4c-3.5,1.2-7.2,1.9-10.8,2.9c-2.3,0.7-3,3.5-1.4,5.5
		c1.6,1.9,3.1,3.9,4.6,5.9c2.1,2.7,4,5.5,6.1,8.3c1.8,2.3,3.7,4.6,5.5,6.9c0.8,1,1.6,2,2.4,3c1.8,2.2,4.2,4.1,5.2,6.5
		c2.2,5.1,6.6,8.4,9.7,12.7c0.3,0.5,1.8,0.7,2.4,0.4c1.4-0.8,2.7-2,4-3.1c2.1-1.9,2.4-4.4,0.7-6.6c-2.6-3.5-5.4-6.8-8-10.3
		c-1.2-1.6-2.2-3.5-2.7-5.4c-0.2-0.7,0.8-2.5,1.5-2.7c4.3-1.3,6.2-5.9,10.6-7c0.6-2.5,3.7-1.7,4.6-3.2c2.2-3.8,6.2-5.3,9.2-8
		c1-0.9,1.6-2.5,1.7-3.8c0-0.7-1.5-1.8-2.4-2C124.3,42.8,117.3,41.8,110.2,40.7z M156,52.7c-0.8,0.1-1.1,0.2-1.3,0.2
		c-1.4,0.3-6.7,6.1-6.8,7.5c0,0.5,0.3,1,0.6,1.4c0.4,0.7,1.2,1.3,1.4,2c0.5,1.7,1.7,1.7,2.8,1c1.9-1.2,3.9-2.5,5.5-4.1
		c1.6-1.5,1.6-3.6,0.4-5.4C157.8,54.2,156.7,53.4,156,52.7z M172.7,47.1c-0.7-1.3-1.4-2.6-2.3-3.7c-0.4-0.5-1.6-0.8-2.2-0.6
		c-1.5,0.7-2.8,1.7-4.2,2.7c-2,1.4-2.9,5-1.3,7.4c0.5,0.9,2.5,1.3,3.6,1.2C169.4,53.6,172,50.4,172.7,47.1z M54.6,53
		c-1.3-2.1-2.5-3.7-3.4-5.4c-1-1.9-2.7-3.6-4.5-2.6c-1.3,0.7-2.3,3.2-2.2,4.9c0,3.5,3.4,5.3,5.2,7.9c0.1,0.2,1.1,0.1,1.4-0.1
		C52.1,56.2,53.2,54.8,54.6,53z M137,58.2c-0.1-0.5-0.3-1.9-0.9-2.9c-0.3-0.6-1.9-1.1-2.4-0.8c-2,1.4-4.1,2.8-5.4,4.7
		c-0.8,1.3-0.7,3.5-0.2,5.1c0.2,0.9,2,1.9,3,2C133.3,66.4,137,61.5,137,58.2z M176.2,23c-2.8,0.3-4.4,1.5-6,3.6
		c-2,2.6-2,5.5,0.6,7.3c0.4,0.3,1.4,0.5,1.8,0.2c2.1-1.5,4.2-3,5.9-4.9c0.8-1,1-2.9,0.7-4.3C178.9,24.1,177.2,23.7,176.2,23z
		 M53.3,32.6c-0.3-1.3-0.3-1.9-0.6-2.3c-1.5-2-2.9-4.2-4.8-5.8c-0.7-0.6-2.9-0.3-3.8,0.4c-0.9,0.7-1.6,2.6-1.2,3.6
		c0.6,2,2,3.8,3.2,5.6c1.1,1.6,2.8,2.2,4.5,1.4C51.7,34.9,52.5,33.4,53.3,32.6z M74.6,59.2c-1.9-2.4-3.8-4.4-5.2-6.8
		c-0.8-1.3-1.9-2-2.7-1.2c-1.3,1.3-2.5,3.1-2.6,4.7c-0.1,1.6,1,3.5,2.1,4.8c1.3,1.3,3.2,2.8,4.8,2.8C72,63.6,73.1,61.1,74.6,59.2z
		 M165.5,36.8c-0.6-0.8-1.5-2.4-2.9-3.4c-1.5-1-2.8-0.1-3.8,1.5c-0.8,1.5-2.3,2.6-3.3,4c-0.5,0.7-1.2,2-0.9,2.4
		c0.9,1.3,2,2.8,3.3,3.2C160.5,45.3,165.6,40.4,165.5,36.8z M187.8,167c0.1-2-3.8-8-5.6-8.2c-1.1-0.1-2.6,0.4-3.4,1.2
		c-0.8,0.8-1.8,2.5-1.4,3.2c1.1,2.3,2.7,4.5,4.4,6.4c0.6,0.6,2.4,0.8,3.3,0.4C186.3,169.3,187,167.9,187.8,167z M186.6,37.6
		c-0.2-4.5-2.7-6.1-5.7-4.4c-1.4,0.8-2.8,1.9-3.9,3.1c-1.3,1.3-1.1,5.1,0.4,6.7c1.6,1.8,2.9,0.8,4.2-0.6c0.7-0.7,2-0.8,2.7-1.5
		C185.3,39.6,186.1,38.2,186.6,37.6z M45,162.1c0.1-2.3-1.6-4.1-3.9-4.2c-2.4-0.1-7.3,4-7.2,6c0,1.6,2.4,4.3,3.9,4.5
		C40,168.6,44.9,164.3,45,162.1z M166.4,139.6c-1.1-2.3-2-4.6-3.3-6.7c-1.7-2.8-2-2.6-4.9-0.7c-1.4,0.9-1.4,1.6-1.4,3.1
		c0,3.2,1.9,5,4,6.7c1,0.8,2.8,1.8,3.5,1.4C165.3,142.8,165.7,141,166.4,139.6z M141.1,51.5c0.1,3.1,2,5,3.9,3.9
		c1.4-0.9,2.8-1.8,4.1-2.8c1.9-1.4,2.7-3.2,2-5.7c-0.6-2-1.6-2.8-3.5-2.7C144.6,44.5,141,48.6,141.1,51.5z M144.8,121.1
		c2.3,3.1,4.1,5.7,6.2,7.9c0.5,0.5,2.8,0.1,3.4-0.6c0.9-1,1.7-2.8,1.4-4c-0.4-1.8-1.6-3.5-3-4.8c-1.2-1.1-3-2.1-4.5-2
		C147.3,117.7,146.3,119.6,144.8,121.1z M177,153.5c0-2-4.1-8.4-5.8-8.8c-0.6-0.1-1.5,0.2-2,0.7c-1.5,1.4-2.3,3-1.3,5.3
		c1.1,2.6,2,5.2,5,5.8C175.3,157,176.9,155.7,177,153.5z M41.9,173.8c0,3.2,1.1,4.3,4.1,3.3c2-0.6,3.7-2.2,5.4-3.5
		c0.7-0.6,1.6-2.4,1.3-2.7c-1.1-1.4-2.5-3.2-4.2-3.6C46.2,166.5,41.9,171.2,41.9,173.8z M167.7,169.1c0.1,3.7,2.7,5.2,4.5,7
		c0.8,0.7,3,0.8,4,0.2c0.8-0.6,1.2-2.6,0.9-3.8c-0.4-1.8-1.7-3.4-2.5-5.1c-0.8-1.9-2.3-2.8-4-1.9
		C169.4,166.2,168.6,167.9,167.7,169.1z M146.5,132.6c-1.8-2.8-3.5-5.5-5.2-8.1c-0.2-0.3-1.3-0.4-1.7-0.2c-2.7,1.2-3.9,4.9-2.3,7.4
		c1.2,1.9,2.9,3.5,4.5,5.1c0.3,0.3,1.5,0.3,1.8,0C144.5,135.7,145.3,134.4,146.5,132.6z M58.3,151.4c-0.6-1.2-1-3-2-3.5
		c-0.8-0.4-2.3,0.7-3.6,1.2c-0.5,0.2-1,0.3-1.4,0.6c-3.2,1.8-4,4.3-2.1,7.5c0.5,0.8,2.1,1.6,3.1,1.5
		C54.9,158.3,57.9,154.3,58.3,151.4z M130.8,77.3c-0.6-0.7-1.5-2.4-2.9-3.1c-0.6-0.3-2.3,1.3-3.4,2.3c-0.8,0.7-1.3,1.9-2.2,2.6
		c-2.1,1.5-1.3,3.2-0.6,4.9c0.9,1.9,2.6,1.4,4.1,0.9C129.1,83.9,130.9,81.5,130.8,77.3z M43.2,39.3c-0.5-2.6-3.4-7.1-5.4-7.4
		c-1.2-0.2-2.7,0.1-3.6,0.8c-0.7,0.6-1,2.3-0.6,3.2c1.1,2.5,2.5,4.8,4,7c0.3,0.5,1.9,0.7,2.3,0.3C41.1,42.1,42.1,40.6,43.2,39.3z
		 M63.6,45.4c-1.2-1.8-2.6-3.4-3.5-5.3c-0.9-1.8-2.3-2.4-3.8-1.8c-1.1,0.4-2.1,1.8-2.5,3c-1,3.1,1.9,4.5,3.3,6.5
		c1,1.4,2.2,3.1,4,1.9C62.3,49,62.7,47.1,63.6,45.4z M65.8,160.5c0-3-1.8-4.7-4.4-3.8c-3.3,1.1-5.6,5.3-5.1,8.7
		c0.3,1.6,1.1,2.3,2.7,2.2C61.2,167.5,65.8,162.7,65.8,160.5z M152.6,150.1c3.7,0,4.7-0.8,4.1-2.9c-0.9-2.9-2.3-5.8-4.1-8.2
		c-1.1-1.4-3.2-0.8-4.3,1c-1.3,2.1-1.2,4.2,0.4,6.2c0.6,0.7,1.2,1.4,1.8,2C151.3,149,152.3,149.8,152.6,150.1z M79.4,84.7
		c-1.4,1.4-2.6,2.2-3.2,3.3c-0.5,0.7-0.7,2.1-0.3,2.8c1.1,1.8,2.5,3.5,3.9,5.1c1.8,2.1,2.7,1.7,4.5-0.5c1.5-1.9,1.6-3.2,0-4.9
		C82.6,88.8,81.2,86.9,79.4,84.7z M161.7,152.5c-2-0.1-5,2.7-4.4,3.8c1.2,2.3,2.6,4.5,4.1,6.5c1.1,1.5,2.7,2.3,4.4,0.6
		c1.6-1.5,2.8-3.2,0.9-5.4c-1.2-1.5-2.3-3-3.5-4.4C162.8,153.1,162,152.8,161.7,152.5z M64,66.2c-1-2.3-1.5-4.3-2.6-6
		c-1.1-1.7-3.7-1.7-5.5-0.6c-2.3,1.4-1.7,3.1-0.7,5c0.4,0.8,0.7,1.8,1.3,2.2c1.7,1.2,3.6,2.2,5.4,3.2C62.6,68.8,63.3,67.5,64,66.2z
		 M75.5,133.9c0,2.9,2.2,4.6,4.2,3.2c2.1-1.4,4.2-3.1,5.6-5.2c0.5-0.8-0.7-2.9-1.3-4.3c-0.2-0.5-1.2-0.9-1.8-0.9
		C79.7,126.8,75.5,131.4,75.5,133.9z M89.1,123.2c0.4,0.8,1,2.2,1.6,3.5c1.4-0.7,2.8-1.3,4.2-2c0.8-0.4,1.6-0.9,2.2-1.6
		c1.6-1.9,2-4,0.6-6.1c-0.4-0.7-1.5-1.3-2.3-1.3C93.7,115.6,89,120.8,89.1,123.2z M130.8,111.8c-2.8-0.2-4.1,0.5-4.1,2.5
		c-0.1,3.6,1.7,6.3,4.1,8.8c0.4,0.4,1.3,0.4,1.8,0.3c2.4-0.7,3.6-3.9,2.4-6.1c-0.7-1.2-1.3-2.5-2.1-3.6
		C132.1,112.8,131.1,112.1,130.8,111.8z M135.6,109c1.4,2.1,2.7,4.4,4.4,6.3c1.2,1.3,3.7,0.2,4.3-1.5c0.7-2.1-2.2-9.1-4.3-9.7
		c-0.8-0.2-2.2,0.2-2.8,0.8C136.6,105.7,136.4,107.1,135.6,109z M92.2,138.8c-0.3-0.5-0.9-1.9-1.8-3c-0.2-0.2-1.9,1-2.9,1.5
		c-0.6,0.3-1.2,0.6-1.8,0.7c-2.6,0.6-2.4,3-2.8,4.7c-0.4,1.7,2.4,4.2,3.8,3.9C89,146.2,92.2,142.2,92.2,138.8z M71.5,83.1
		c2.8,0,3.4-2,2.8-3.7c-0.7-2.2-2.3-4.2-3.6-6.2c-1.3-2.1-2.7-1.6-4,0c-1.5,1.9-1.3,4.1-0.1,5.9C67.8,80.8,68.6,83.4,71.5,83.1z
		 M85.9,81c0,3.7,0.6,5.1,3.6,8c0.5,0.5,0.4,2.7,2,1.1c1.2-1.3,4-1.6,3-4.3c-0.5-1.5-1-3.3-2.1-4.4c-1.2-1.2-2.9-2.2-4.6-2.6
		C87.2,78.7,86.2,80.6,85.9,81z M138.2,75.1c2.4-2,4.8-3.5,6.4-5.6c0.6-0.9-0.5-3.3-1.3-4.8c-0.7-1.3-2.4-0.7-3.2,0
		c-1.7,1.4-3.1,3.3-4.8,4.8c-1.8,1.5,0.5,2.2,0.4,3.4C135.6,73.4,136.9,74,138.2,75.1z M69,153.6c0,2.5,2.6,4.2,4.7,2.9
		c1.7-1.1,3.4-2.4,4.8-3.8c0.6-0.6,0.9-2.1,0.6-2.7c-0.6-1.2-1.7-2.8-2.9-3.1C73.8,146.2,69,150.9,69,153.6z M71.7,140.6
		c-0.3-0.5-0.6-2.2-1.6-2.8c-0.8-0.5-2.6-0.1-3.7,0.4c-1.4,0.8-2.6,2.1-3.6,3.3c-1.3,1.7-0.4,5.8,1.2,6
		C66.4,148,72,145.1,71.7,140.6z M114.4,72.8c0.4,0.6,0.9,2.1,2,3c0.4,0.4,2.1-0.6,3.1-1.2c1.4-0.9,3-1.8,3.7-3.2
		c0.6-1.3,0.5-3.2,0.1-4.6c-0.2-0.7-1.7-1.5-2.6-1.5C118.6,65.3,114.8,69.6,114.4,72.8z M84.8,71.8c-1.8-1.9-3.6-3.5-5.1-5.4
		c-1.3-1.7-3-1.6-3.9-0.4c-0.7,1.1-0.6,3.1-0.2,4.5c0.3,1.3,1.3,2.6,2.3,3.5c1.1,1,2.9,2.4,3.7,2.1C82.9,75.6,83.5,73.7,84.8,71.8z
		 M106.7,129.2c-1.2-1.8-1.9-3.4-3.1-4.3c-0.4-0.3-2.1,1-3.2,1.6c-0.5,0.2-1,0.4-1.4,0.7c-1.1,1.2-2.5,2.4-3.2,3.8
		c-0.3,0.7,0.8,2,1.2,3c0.7,1.8,2.2,2.3,3.7,1.1c1.1-0.9,2.2-1.7,3.2-2.7C104.8,131.5,105.6,130.5,106.7,129.2z"/>
	<path d="M26.3,101.3c0.4-4.1,0.3-8.4,1.5-12.2c1.7-5.3,2.9-11,6.7-15.4c2.9-3.4,5.6-7.1,8.8-10.2c2-1.9,1.4-2.9,0.1-4.5
		c-5.9-7.4-11.6-14.9-17.5-22.2c-1.6-2-1.6-3.2,0.5-4.8c4.5-3.5,8.9-7.1,13.4-10.6c1.4-1.1,2-2.2,2.1-3.9c0.1-0.9,0.9-2.2,1.5-2.3
		c1.3-0.2,3.4-0.3,4.1,0.5c4.3,4.9,8.4,10,12.4,15.1c3.2,4.2,6.1,8.6,9.4,12.8c1.3,1.7,3.4,2.3,5.7,1.5c3.2-1.1,6.4-2.3,9.7-2.9
		c5.1-0.9,10.3-1,15.3-2.1c5.4-1.1,10.8-2,16-0.6c5.9,1.6,12.4,0.5,18,3.9c1.9,1.2,4.6,1.1,7-0.9c4.6-3.8,9.8-6.8,14.5-10.5
		c5.5-4.2,10.9-8.7,16.2-13.2c2.6-2.2,7.3-2.2,9.3,1c2.5,4.2,5.8,8,9,11.7c0.8,0.9,2.3,1.2,3.5,1.8c2.6,1.4,2.8,3.8,0.5,5.5
		c-7,5.1-14.1,10.3-21,15.5c-3.4,2.6-3.2,5.7-0.1,8.5c3.9,3.6,7.9,7.2,11.4,11.3c2.1,2.5,3.3,5.8,4.7,8.8c1.6,3.5,3.3,7.1,4.3,10.9
		c0.8,2.9,0.7,6,0.8,9c0.1,1.3-0.3,2.7-0.2,4c0.5,5.2-1.2,9.8-3.8,14.1c-0.1,0.2-0.3,0.5-0.3,0.7c-0.9,7.6-6.4,12.3-11.2,17.3
		c-1.7,1.8-1.5,3.7-0.6,4.9c2.7,4,5.8,7.8,8.9,11.6c2.6,3.2,5.4,6.2,7.9,9.5c0.5,0.7,0.3,2.7-0.3,3.4c-1.5,1.7-3.4,3-5.2,4.4
		c-4.5,3.5-10,5.8-12.5,11.6c-0.4,0.9-2.1,1.4-3.2,1.6c-0.6,0.1-1.6-0.7-2-1.4c-2.5-3.6-4.8-7.3-7.3-10.8c-2.4-3.3-5.1-6.4-7.7-9.7
		c-1.2-1.5-2.1-3.2-3.5-4.5c-1.3-1.3-2.9-1.9-5-1.1c-5.6,2-11.2,4.5-17,5.4c-10.1,1.6-20.3,2.1-30.5,0.9c-3.3-0.4-6.6-0.5-9.8-1.2
		c-2.9-0.6-6-1.2-8.3-2.8c-3.2-2.2-5.4-0.7-7.7,1c-5.5,4-11,8.2-16.5,12.3c-3.3,2.5-6.6,5.2-9.9,7.7c-0.9,0.7-2,1.2-3,1.8
		c-2.6,1.6-4,1.3-5.6-1.2c-2.3-3.7-4.6-7.4-8.3-9.9c-0.4-0.3-0.6-0.8-0.8-1.3c-0.6-2.3-2-3.6-4.5-3.5c-0.8,0-1.5-0.4-2.3-0.7
		c-1.7-0.6-1.6-1.6-0.4-2.6c4-3,8.3-5.7,11.9-9.1c2.4-2.3,5.6-3.5,8.2-5.4c1.3-1,2.6-2.1,3.3-3.6c0.6-1.3,8.2-5.7,9.5-6.9
		c2.5-2.3,5.4-4.3,8.1-6.3c3.4-2.5,6.8-5,10.1-7.5c1.6-1.2,3.1-2.7,4.7-3.9c6.6-5.2,13.3-10.4,19.9-15.6c1.3-1,2.8-1.8,3.9-3
		c1-1,2.3-2.5,2.1-3.4c-0.4-1.9-1.7-3.6-2.8-5.3c-0.6-0.9-1.6-1.7-2.6-2.3c-0.6-0.4-1.8-0.6-2.2-0.2c-3,2.3-5.9,4.8-8.9,7.2
		c-1.9,1.5-3.7,3.2-5.7,4.5c-1.9,1.2-4.9,0.2-6.2-1.6c-3.3-4.5-6.8-9-10.2-13.5c-4.2-5.6-8.3-11.2-12.5-16.7c-1.7-2.1-3.5-4.2-5.5-6
		c-1.3-1.3-2.5-1.2-4.3,0.3c-4.6,4-7.6,9.2-10.5,14.4c-1.4,2.5-2.6,5.4-3,8.2c-1.2,9-2.1,18,0.7,26.8c0.8,2.7,2.6,5.1,4,7.7
		c1,1.8,2.2,3.4,3,5.3c1.1,2.8,3.3,4.5,5.2,6.6c0.6,0.7,0.9,1.8,1.3,2.7c-1.1,0-2.2,0.2-3.2-0.1c-0.6-0.2-1.2-0.9-1.6-1.5
		c-2.9-4.2-5.8-8.5-8.6-12.8c-0.2-0.3-0.5-0.7-0.5-1.1C29.7,115.2,24.7,109,26.3,101.3z M189.7,101.4c0.1,0,0.3-0.1,0.4-0.1
		c-0.2-2.2-0.2-4.5-0.5-6.6c-0.4-2.9-0.6-6-1.8-8.5c-2.2-4.6-5.1-8.8-7.8-13.2c-0.4-0.7-1.1-1.4-1.7-2c-3.4-3.4-7-6.7-10.3-10.2
		c-1.1-1.2-1.6-1-2.8-0.3c-3.8,2.3-6.6,5.9-10.7,7.9c-4.6,2.3-8.4,6.3-12.6,9.4c-1.5,1.2-3.3,2-4.7,3.2c-2.8,2.4-5.5,5-8.3,7.5
		c-3.7,3.2-7.5,6.3-11.3,9.5c-2.2,1.8-2.2,4-1,6.3c0.5,0.9,1.2,1.7,1.7,2.6c1.7,2.8,3.6,3.3,6,1.3c3.7-3.1,7.4-6.2,11-9.4
		c2.3-2,5.2-2.4,7.4-0.3c2.6,2.6,5.7,5.2,7.2,8.4c2.6,5.7,7.3,9.6,10.6,14.7c3.3,5.2,8.3,9.2,11.1,14.9c1.1,2.3,4.3,2.7,5.6,1
		c6.1-7.7,11.9-15.4,12.5-25.8c0-0.9,0.5-1.8,0.7-2.7c0.2-1.7,0.5-3.5,0.4-5.2C190.7,103.2,190.1,102.3,189.7,101.4z M112.5,163.8
		c5.4-1.1,10.9,0.8,16.3-1.5c4.5-1.9,9.6-2.4,14.4-3.5c0.9-0.2,1.8-0.4,2.7-0.8c2.3-1.1,2.8-3.2,1.2-5.1c-1.7-2.1-3.5-4.1-5.1-6.2
		c-2.5-3.5-4.6-7.3-7.3-10.6c-3.5-4.3-7-8.5-10.2-13.1c-3.8-5.5-7.8-10.9-11.9-16.1c-0.8-1-3.4-1.8-4.2-1.2
		c-2.4,1.5-4.9,3.3-6.2,5.7c-1.1,2,0.7,5.4,2.3,6.3c4.4,2.6,5.4,7.6,8.8,10.7c2.1,1.9,0.9,3-0.5,4c-2.9,2.1-4.4,6.2-8.7,6.5
		c-0.2,0-0.4,0.7-0.7,0.9c-2.8,1.7-4.9,4-7.1,6.3c-2.9,3-6.8,4.9-10.1,7.5c-1.2,0.9-2.3,2.2-3,3.5c-0.3,0.5,0.3,2.1,1,2.4
		c1.8,0.8,3.8,1.5,5.8,1.8c6.4,1.2,12.8,3.1,19.4,2.6C110.4,163.7,111.5,163.8,112.5,163.8z M110.2,40.7c-7.5,0.7-14.8,1.1-21.9,3.4
		c-3.5,1.2-7.2,1.9-10.8,2.9c-2.3,0.7-3,3.5-1.4,5.5c1.6,1.9,3.1,3.9,4.6,5.9c2.1,2.7,4,5.5,6.1,8.3c1.8,2.3,3.7,4.6,5.5,6.9
		c0.8,1,1.6,2,2.4,3c1.8,2.2,4.2,4.1,5.2,6.5c2.2,5.1,6.6,8.4,9.7,12.7c0.3,0.5,1.8,0.7,2.4,0.4c1.4-0.8,2.7-2,4-3.1
		c2.1-1.9,2.4-4.4,0.7-6.6c-2.6-3.5-5.4-6.8-8-10.3c-1.2-1.6-2.2-3.5-2.7-5.4c-0.2-0.7,0.8-2.5,1.5-2.7c4.3-1.3,6.2-5.9,10.6-7
		c0.6-2.5,3.7-1.7,4.6-3.2c2.2-3.8,6.2-5.3,9.2-8c1-0.9,1.6-2.5,1.7-3.8c0-0.7-1.5-1.8-2.4-2C124.3,42.8,117.3,41.8,110.2,40.7z
		 M156,52.7c-0.8,0.1-1.1,0.2-1.3,0.2c-1.4,0.3-6.7,6.1-6.8,7.5c0,0.5,0.3,1,0.6,1.4c0.4,0.7,1.2,1.3,1.4,2c0.5,1.7,1.7,1.7,2.8,1
		c1.9-1.2,3.9-2.5,5.5-4.1c1.6-1.5,1.6-3.6,0.4-5.4C157.8,54.2,156.7,53.4,156,52.7z M172.7,47.1c-0.7-1.3-1.4-2.6-2.3-3.7
		c-0.4-0.5-1.6-0.8-2.2-0.6c-1.5,0.7-2.8,1.7-4.2,2.7c-2,1.4-2.9,5-1.3,7.4c0.5,0.9,2.5,1.3,3.6,1.2C169.4,53.6,172,50.4,172.7,47.1
		z M54.6,53c-1.3-2.1-2.5-3.7-3.4-5.4c-1-1.9-2.7-3.6-4.5-2.6c-1.3,0.7-2.3,3.2-2.2,4.9c0,3.5,3.4,5.3,5.2,7.9
		c0.1,0.2,1.1,0.1,1.4-0.1C52.1,56.2,53.2,54.8,54.6,53z M137,58.2c-0.1-0.5-0.3-1.9-0.9-2.9c-0.3-0.6-1.9-1.1-2.4-0.8
		c-2,1.4-4.1,2.8-5.4,4.7c-0.8,1.3-0.7,3.5-0.2,5.1c0.2,0.9,2,1.9,3,2C133.3,66.4,137,61.5,137,58.2z M176.2,23
		c-2.8,0.3-4.4,1.5-6,3.6c-2,2.6-2,5.5,0.6,7.3c0.4,0.3,1.4,0.5,1.8,0.2c2.1-1.5,4.2-3,5.9-4.9c0.8-1,1-2.9,0.7-4.3
		C178.9,24.1,177.2,23.7,176.2,23z M53.3,32.6c-0.3-1.3-0.3-1.9-0.6-2.3c-1.5-2-2.9-4.2-4.8-5.8c-0.7-0.6-2.9-0.3-3.8,0.4
		c-0.9,0.7-1.6,2.6-1.2,3.6c0.6,2,2,3.8,3.2,5.6c1.1,1.6,2.8,2.2,4.5,1.4C51.7,34.9,52.5,33.4,53.3,32.6z M74.6,59.2
		c-1.9-2.4-3.8-4.4-5.2-6.8c-0.8-1.3-1.9-2-2.7-1.2c-1.3,1.3-2.5,3.1-2.6,4.7c-0.1,1.6,1,3.5,2.1,4.8c1.3,1.3,3.2,2.8,4.8,2.8
		C72,63.6,73.1,61.1,74.6,59.2z M165.5,36.8c-0.6-0.8-1.5-2.4-2.9-3.4c-1.5-1-2.8-0.1-3.8,1.5c-0.8,1.5-2.3,2.6-3.3,4
		c-0.5,0.7-1.2,2-0.9,2.4c0.9,1.3,2,2.8,3.3,3.2C160.5,45.3,165.6,40.4,165.5,36.8z M187.8,167c0.1-2-3.8-8-5.6-8.2
		c-1.1-0.1-2.6,0.4-3.4,1.2c-0.8,0.8-1.8,2.5-1.4,3.2c1.1,2.3,2.7,4.5,4.4,6.4c0.6,0.6,2.4,0.8,3.3,0.4
		C186.3,169.3,187,167.9,187.8,167z M186.6,37.6c-0.2-4.5-2.7-6.1-5.7-4.4c-1.4,0.8-2.8,1.9-3.9,3.1c-1.3,1.3-1.1,5.1,0.4,6.7
		c1.6,1.8,2.9,0.8,4.2-0.6c0.7-0.7,2-0.8,2.7-1.5C185.3,39.6,186.1,38.2,186.6,37.6z M45,162.1c0.1-2.3-1.6-4.1-3.9-4.2
		c-2.4-0.1-7.3,4-7.2,6c0,1.6,2.4,4.3,3.9,4.5C40,168.6,44.9,164.3,45,162.1z M166.4,139.6c-1.1-2.3-2-4.6-3.3-6.7
		c-1.7-2.8-2-2.6-4.9-0.7c-1.4,0.9-1.4,1.6-1.4,3.1c0,3.2,1.9,5,4,6.7c1,0.8,2.8,1.8,3.5,1.4C165.3,142.8,165.7,141,166.4,139.6z
		 M141.1,51.5c0.1,3.1,2,5,3.9,3.9c1.4-0.9,2.8-1.8,4.1-2.8c1.9-1.4,2.7-3.2,2-5.7c-0.6-2-1.6-2.8-3.5-2.7
		C144.6,44.5,141,48.6,141.1,51.5z M144.8,121.1c2.3,3.1,4.1,5.7,6.2,7.9c0.5,0.5,2.8,0.1,3.4-0.6c0.9-1,1.7-2.8,1.4-4
		c-0.4-1.8-1.6-3.5-3-4.8c-1.2-1.1-3-2.1-4.5-2C147.3,117.7,146.3,119.6,144.8,121.1z M177,153.5c0-2-4.1-8.4-5.8-8.8
		c-0.6-0.1-1.5,0.2-2,0.7c-1.5,1.4-2.3,3-1.3,5.3c1.1,2.6,2,5.2,5,5.8C175.3,157,176.9,155.7,177,153.5z M41.9,173.8
		c0,3.2,1.1,4.3,4.1,3.3c2-0.6,3.7-2.2,5.4-3.5c0.7-0.6,1.6-2.4,1.3-2.7c-1.1-1.4-2.5-3.2-4.2-3.6C46.2,166.5,41.9,171.2,41.9,173.8
		z M167.7,169.1c0.1,3.7,2.7,5.2,4.5,7c0.8,0.7,3,0.8,4,0.2c0.8-0.6,1.2-2.6,0.9-3.8c-0.4-1.8-1.7-3.4-2.5-5.1
		c-0.8-1.9-2.3-2.8-4-1.9C169.4,166.2,168.6,167.9,167.7,169.1z M146.5,132.6c-1.8-2.8-3.5-5.5-5.2-8.1c-0.2-0.3-1.3-0.4-1.7-0.2
		c-2.7,1.2-3.9,4.9-2.3,7.4c1.2,1.9,2.9,3.5,4.5,5.1c0.3,0.3,1.5,0.3,1.8,0C144.5,135.7,145.3,134.4,146.5,132.6z M58.3,151.4
		c-0.6-1.2-1-3-2-3.5c-0.8-0.4-2.3,0.7-3.6,1.2c-0.5,0.2-1,0.3-1.4,0.6c-3.2,1.8-4,4.3-2.1,7.5c0.5,0.8,2.1,1.6,3.1,1.5
		C54.9,158.3,57.9,154.3,58.3,151.4z M130.8,77.3c-0.6-0.7-1.5-2.4-2.9-3.1c-0.6-0.3-2.3,1.3-3.4,2.3c-0.8,0.7-1.3,1.9-2.2,2.6
		c-2.1,1.5-1.3,3.2-0.6,4.9c0.9,1.9,2.6,1.4,4.1,0.9C129.1,83.9,130.9,81.5,130.8,77.3z M43.2,39.3c-0.5-2.6-3.4-7.1-5.4-7.4
		c-1.2-0.2-2.7,0.1-3.6,0.8c-0.7,0.6-1,2.3-0.6,3.2c1.1,2.5,2.5,4.8,4,7c0.3,0.5,1.9,0.7,2.3,0.3C41.1,42.1,42.1,40.6,43.2,39.3z
		 M63.6,45.4c-1.2-1.8-2.6-3.4-3.5-5.3c-0.9-1.8-2.3-2.4-3.8-1.8c-1.1,0.4-2.1,1.8-2.5,3c-1,3.1,1.9,4.5,3.3,6.5
		c1,1.4,2.2,3.1,4,1.9C62.3,49,62.7,47.1,63.6,45.4z M65.8,160.5c0-3-1.8-4.7-4.4-3.8c-3.3,1.1-5.6,5.3-5.1,8.7
		c0.3,1.6,1.1,2.3,2.7,2.2C61.2,167.5,65.8,162.7,65.8,160.5z M152.6,150.1c3.7,0,4.7-0.8,4.1-2.9c-0.9-2.9-2.3-5.8-4.1-8.2
		c-1.1-1.4-3.2-0.8-4.3,1c-1.3,2.1-1.2,4.2,0.4,6.2c0.6,0.7,1.2,1.4,1.8,2C151.3,149,152.3,149.8,152.6,150.1z M79.4,84.7
		c-1.4,1.4-2.6,2.2-3.2,3.3c-0.5,0.7-0.7,2.1-0.3,2.8c1.1,1.8,2.5,3.5,3.9,5.1c1.8,2.1,2.7,1.7,4.5-0.5c1.5-1.9,1.6-3.2,0-4.9
		C82.6,88.8,81.2,86.9,79.4,84.7z M161.7,152.5c-2-0.1-5,2.7-4.4,3.8c1.2,2.3,2.6,4.5,4.1,6.5c1.1,1.5,2.7,2.3,4.4,0.6
		c1.6-1.5,2.8-3.2,0.9-5.4c-1.2-1.5-2.3-3-3.5-4.4C162.8,153.1,162,152.8,161.7,152.5z M64,66.2c-1-2.3-1.5-4.3-2.6-6
		c-1.1-1.7-3.7-1.7-5.5-0.6c-2.3,1.4-1.7,3.1-0.7,5c0.4,0.8,0.7,1.8,1.3,2.2c1.7,1.2,3.6,2.2,5.4,3.2C62.6,68.8,63.3,67.5,64,66.2z
		 M75.5,133.9c0,2.9,2.2,4.6,4.2,3.2c2.1-1.4,4.2-3.1,5.6-5.2c0.5-0.8-0.7-2.9-1.3-4.3c-0.2-0.5-1.2-0.9-1.8-0.9
		C79.7,126.8,75.5,131.4,75.5,133.9z M89.1,123.2c0.4,0.8,1,2.2,1.6,3.5c1.4-0.7,2.8-1.3,4.2-2c0.8-0.4,1.6-0.9,2.2-1.6
		c1.6-1.9,2-4,0.6-6.1c-0.4-0.7-1.5-1.3-2.3-1.3C93.7,115.6,89,120.8,89.1,123.2z M130.8,111.8c-2.8-0.2-4.1,0.5-4.1,2.5
		c-0.1,3.6,1.7,6.3,4.1,8.8c0.4,0.4,1.3,0.4,1.8,0.3c2.4-0.7,3.6-3.9,2.4-6.1c-0.7-1.2-1.3-2.5-2.1-3.6
		C132.1,112.8,131.1,112.1,130.8,111.8z M135.6,109c1.4,2.1,2.7,4.4,4.4,6.3c1.2,1.3,3.7,0.2,4.3-1.5c0.7-2.1-2.2-9.1-4.3-9.7
		c-0.8-0.2-2.2,0.2-2.8,0.8C136.6,105.7,136.4,107.1,135.6,109z M92.2,138.8c-0.3-0.5-0.9-1.9-1.8-3c-0.2-0.2-1.9,1-2.9,1.5
		c-0.6,0.3-1.2,0.6-1.8,0.7c-2.6,0.6-2.4,3-2.8,4.7c-0.4,1.7,2.4,4.2,3.8,3.9C89,146.2,92.2,142.2,92.2,138.8z M71.5,83.1
		c2.8,0,3.4-2,2.8-3.7c-0.7-2.2-2.3-4.2-3.6-6.2c-1.3-2.1-2.7-1.6-4,0c-1.5,1.9-1.3,4.1-0.1,5.9C67.8,80.8,68.6,83.4,71.5,83.1z
		 M85.9,81c0,3.7,0.6,5.1,3.6,8c0.5,0.5,0.4,2.7,2,1.1c1.2-1.3,4-1.6,3-4.3c-0.5-1.5-1-3.3-2.1-4.4c-1.2-1.2-2.9-2.2-4.6-2.6
		C87.2,78.7,86.2,80.6,85.9,81z M138.2,75.1c2.4-2,4.8-3.5,6.4-5.6c0.6-0.9-0.5-3.3-1.3-4.8c-0.7-1.3-2.4-0.7-3.2,0
		c-1.7,1.4-3.1,3.3-4.8,4.8c-1.8,1.5,0.5,2.2,0.4,3.4C135.6,73.4,136.9,74,138.2,75.1z M69,153.6c0,2.5,2.6,4.2,4.7,2.9
		c1.7-1.1,3.4-2.4,4.8-3.8c0.6-0.6,0.9-2.1,0.6-2.7c-0.6-1.2-1.7-2.8-2.9-3.1C73.8,146.2,69,150.9,69,153.6z M71.7,140.6
		c-0.3-0.5-0.6-2.2-1.6-2.8c-0.8-0.5-2.6-0.1-3.7,0.4c-1.4,0.8-2.6,2.1-3.6,3.3c-1.3,1.7-0.4,5.8,1.2,6
		C66.4,148,72,145.1,71.7,140.6z M114.4,72.8c0.4,0.6,0.9,2.1,2,3c0.4,0.4,2.1-0.6,3.1-1.2c1.4-0.9,3-1.8,3.7-3.2
		c0.6-1.3,0.5-3.2,0.1-4.6c-0.2-0.7-1.7-1.5-2.6-1.5C118.6,65.3,114.8,69.6,114.4,72.8z M84.8,71.8c-1.8-1.9-3.6-3.5-5.1-5.4
		c-1.3-1.7-3-1.6-3.9-0.4c-0.7,1.1-0.6,3.1-0.2,4.5c0.3,1.3,1.3,2.6,2.3,3.5c1.1,1,2.9,2.4,3.7,2.1C82.9,75.6,83.5,73.7,84.8,71.8z
		 M106.7,129.2c-1.2-1.8-1.9-3.4-3.1-4.3c-0.4-0.3-2.1,1-3.2,1.6c-0.5,0.2-1,0.4-1.4,0.7c-1.1,1.2-2.5,2.4-3.2,3.8
		c-0.3,0.7,0.8,2,1.2,3c0.7,1.8,2.2,2.3,3.7,1.1c1.1-0.9,2.2-1.7,3.2-2.7C104.8,131.5,105.6,130.5,106.7,129.2z"/>
	<g>
		<g>
			<path class="st0" d="M286.5,85.1l-8.8,4.4c-1.8-3.6-3.5-6.3-5.3-8.2s-3.6-2.8-5.7-2.8c-3,0-5.6,1-7.8,2.9
				c-2.2,1.9-3.8,4.7-4.9,8.1s-1.6,7.5-1.6,12c0,4.8,0.5,8.8,1.4,12c0.9,3.3,2.3,5.7,4.1,7.4c1.8,1.7,4,2.5,6.6,2.5
				c2.4-0.3,4.4-0.8,6-1.6s2.9-1.8,4-3.1c1.1-1.2,2-2.6,2.9-4.1s1.7-3,2.5-4.4l6.6,5.5c-1.4,4.3-4.1,8.1-8.2,11.5
				c-4,3.3-9.7,5-17.1,5c-7.4,0-13.3-1.7-17.8-5.1c-4.4-3.4-7.5-7.7-9.3-12.7s-2.6-10.1-2.6-15.1c0-6.5,1.4-12.1,4.3-16.6
				c2.9-4.5,6.7-7.8,11.3-9.9c4.7-2.1,9.7-3.2,15.1-3.2C273.3,69.7,281.4,74.9,286.5,85.1z"/>
			<path class="st0" d="M295.1,69.7h28.6c7.8,0,13.8,1.9,17.9,5.8c4.1,3.9,6.1,8.5,6.1,13.8c0,3.7-1.1,7-3.2,10
				c-2.2,3-5.1,4.8-8.7,5.5l17.6,26.4h-23.1L316,101.6c0.9,0.1,1.5,0.1,1.9,0.1c3.1,0,5.4-1.1,6.9-3.4c1.5-2.2,2.2-5.2,2.2-8.9
				c0-2.9-0.4-5.2-1.2-6.8c-0.8-1.6-2.1-2.7-3.8-3.3c-1.8-0.6-4.1-0.9-7.1-0.9v52.7h-19.8V69.7z"/>
			<path class="st0" d="M398.2,70.8v8.8H384c-2.7,0-4.4,0.6-5.3,1.7c-0.9,1.1-1.3,3.1-1.3,6v8.8H396v9.9h-18.7v9.9
				c0,2.2,0.5,3.8,1.5,4.9c1,1.1,2.3,1.7,4,1.7h16.5v8.8h-31.8c-3.7,0-6.5-1.2-8.3-3.6c-1.8-2.4-2.7-5.6-2.7-9.6V84
				c0-4.2,1.1-7.5,3.4-9.7c2.3-2.3,5.2-3.4,8.6-3.4H398.2z"/>
			<path class="st0" d="M403.1,131.2l15.4-49.4c0.7-2.5,1.8-4.6,3.1-6.3c1.3-1.7,2.8-3,4.4-3.9c1.6-0.9,3.4-1.3,5.1-1.3
				c2.7,0,5.2,1,7.6,3c2.3,2,4,4.8,5.1,8.5l16.5,49.4h-20.9l-3.3-11h-19.8l-3.3,11H403.1z M433.9,111.5l-7.7-23.1l-6.6,23.1H433.9z"
				/>
			<path class="st0" d="M454,69.7h51.6v12.1h-15.4v49.4h-20.9V81.8H454V69.7z"/>
			<path class="st0" d="M512.7,69.7h20.9v61.5h-20.9V69.7z"/>
			<path class="st0" d="M540.7,69.7h20.9l13.2,46.1l12.1-46.1h11l-15.4,53.8c-0.8,2.9-2.4,5.2-4.9,6.8s-5.3,2.5-8.3,2.5
				c-3.1,0-5.9-0.9-8.3-2.7c-2.4-1.8-4.1-4.4-4.8-7.8L540.7,69.7z"/>
			<path class="st0" d="M642.7,70.8v8.8h-14.3c-2.7,0-4.4,0.6-5.3,1.7c-0.9,1.1-1.3,3.1-1.3,6v8.8h18.7v9.9h-18.7v9.9
				c0,2.2,0.5,3.8,1.5,4.9s2.3,1.7,4,1.7h16.5v8.8H612c-3.7,0-6.5-1.2-8.3-3.6c-1.8-2.4-2.7-5.6-2.7-9.6V84c0-4.2,1.1-7.5,3.4-9.7
				c2.3-2.3,5.2-3.4,8.6-3.4H642.7z"/>
			<path class="st0" d="M689.4,68.1h17.5v26.6h19V68.1h17.5v63.1h-17.5v-28.1h-19v28.1h-17.5V68.1z"/>
			<path class="st0" d="M782.2,69.7c5.3,0,9.9,0.9,13.8,2.6c4,1.7,7.2,4,9.6,6.9s4.3,6.1,5.5,9.7s1.8,7.3,1.8,11.2
				c0,1.1,0,2-0.1,2.5c-0.3,5.2-1.8,10.1-4.5,14.7c-2.7,4.6-6.3,8.2-10.7,10.9c-4.4,2.7-9.3,4-14.7,4c-0.9,0-1.5,0-1.9-0.1
				c-6.4-0.3-11.8-1.9-16.2-4.7c-4.5-2.8-7.8-6.6-10.1-11.2c-2.2-4.7-3.4-10-3.4-15.9c0-0.5-0.1-1.2-0.1-2.1
				c0-5.6,1.3-10.5,3.9-14.8c2.6-4.2,6.3-7.5,11-9.8C771,71.4,776.3,70,782.2,69.7z M791,99.4c0-3.2-0.2-6.4-0.7-9.7
				s-1.3-6.2-2.6-8.6c-1.3-2.4-3.1-3.6-5.5-3.6c-6.6,0-9.9,8.4-9.9,25.3c0,5.2,0.7,10.2,2.1,14.9c1.4,4.7,4,7.1,7.8,7.1
				c2.7,0,4.6-1.3,5.9-3.9c1.3-2.6,2.1-5.6,2.4-9.1C790.8,108.2,791,104.1,791,99.4z"/>
			<path class="st0" d="M819.4,69.7h20.9v37.3c0,8.8,3.3,13.2,9.9,13.2c4,0,6.6-1.6,7.9-4.7c1.3-3.2,2-7.4,2-12.8V69.7h9.9v40.6
				c0,6.5-2,11.8-5.9,15.9c-3.9,4-10,6.1-18.3,6.1c-5.3,0-9.9-0.9-13.8-2.6c-4-1.7-7-4.4-9.2-7.9c-2.2-3.5-3.3-7.7-3.3-12.6V69.7z"
				/>
			<path class="st0" d="M917,69.7v8.8h-14.3c-4.2,0-6.2,1.4-6.2,4.3c0,1.4,0.6,2.8,1.8,4.2c1.2,1.3,2.7,2.2,4.5,2.5
				c4,0.6,7.5,1.6,10.5,3c3,1.4,5.4,3.1,7.3,5c1.9,1.9,3.3,4,4.2,6.3s1.4,4.6,1.4,7c0,3.3-0.9,6.6-2.7,9.8c-1.8,3.2-4.3,5.8-7.5,7.7
				c-3.2,1.9-6.9,2.9-11,2.9h-25.3v-9.9h18.7c2.3,0,4.2-0.6,5.5-1.8c1.3-1.2,2-2.6,2-4.2c0-1.1-0.4-2.2-1.1-3.2
				c-0.7-1-1.8-1.9-3.3-2.6s-3.3-1.2-5.4-1.4c-6.5-0.8-11.3-3-14.6-6.6c-3.3-3.6-4.9-7.9-4.9-12.7c0-3.3,0.8-6.4,2.3-9.3
				s3.6-5.3,6.4-7.1c2.8-1.8,6-2.7,9.8-2.7H917z"/>
			<path class="st0" d="M976.4,70.8v8.8h-14.3c-2.7,0-4.4,0.6-5.3,1.7c-0.9,1.1-1.3,3.1-1.3,6v8.8h18.7v9.9h-18.7v9.9
				c0,2.2,0.5,3.8,1.5,4.9c1,1.1,2.3,1.7,4,1.7h16.5v8.8h-31.8c-3.7,0-6.5-1.2-8.3-3.6c-1.8-2.4-2.7-5.6-2.7-9.6V84
				c0-4.2,1.1-7.5,3.4-9.7c2.3-2.3,5.2-3.4,8.6-3.4H976.4z"/>
		</g>
	</g>
</g>
</svg>
