<?xml version="1.0" encoding="utf-8"?>
<!-- Generator: Adobe Illustrator 24.2.3, SVG Export Plug-In . SVG Version: 6.00 Build 0)  -->
<svg version="1.1" id="Layer_1" xmlns="http://www.w3.org/2000/svg" xmlns:xlink="http://www.w3.org/1999/xlink" x="0px" y="0px"
	 viewBox="0 0 755 201" style="enable-background:new 0 0 755 201;" xml:space="preserve">
<style type="text/css">
	.st0{fill:#231F20;stroke:#000000;stroke-width:0.5;stroke-linecap:round;stroke-linejoin:round;stroke-miterlimit:10;}
</style>
<g>
	<g>
		<path class="st0" d="M57.5,84.1l-8.8,4.4c-1.8-3.6-3.5-6.3-5.3-8.2s-3.6-2.8-5.7-2.8c-3,0-5.6,1-7.8,2.9c-2.2,1.9-3.8,4.7-4.9,8.1
			s-1.6,7.5-1.6,12c0,4.8,0.5,8.8,1.4,12c0.9,3.3,2.3,5.7,4.1,7.4c1.8,1.7,4,2.5,6.6,2.5c2.4-0.3,4.4-0.8,6-1.6s2.9-1.8,4-3.1
			c1.1-1.2,2-2.6,2.9-4.1s1.7-3,2.5-4.4l6.6,5.5c-1.4,4.3-4.1,8.1-8.2,11.5c-4,3.3-9.7,5-17.1,5s-13.3-1.7-17.8-5.1
			c-4.4-3.4-7.5-7.7-9.3-12.7s-2.6-10.1-2.6-15.1c0-6.5,1.4-12.1,4.3-16.6c2.9-4.5,6.7-7.8,11.3-9.9c4.7-2.1,9.7-3.2,15.1-3.2
			C44.3,68.7,52.4,73.9,57.5,84.1z"/>
		<path class="st0" d="M66.1,68.7h28.6c7.8,0,13.8,1.9,17.9,5.8s6.1,8.5,6.1,13.8c0,3.7-1.1,7-3.2,10c-2.2,3-5.1,4.8-8.7,5.5
			l17.6,26.4h-23.1L87,100.6c0.9,0.1,1.5,0.1,1.9,0.1c3.1,0,5.4-1.1,6.9-3.4c1.5-2.2,2.2-5.2,2.2-8.9c0-2.9-0.4-5.2-1.2-6.8
			C96,80,94.7,78.9,93,78.3c-1.8-0.6-4.1-0.9-7.1-0.9v52.7H66.1V68.7z"/>
		<path class="st0" d="M169.2,69.8v8.8H155c-2.7,0-4.4,0.6-5.3,1.7s-1.3,3.1-1.3,6v8.8H167v9.9h-18.7v9.9c0,2.2,0.5,3.8,1.5,4.9
			s2.3,1.7,4,1.7h16.5v8.8h-31.8c-3.7,0-6.5-1.2-8.3-3.6s-2.7-5.6-2.7-9.6V83c0-4.2,1.1-7.5,3.4-9.7c2.3-2.3,5.2-3.4,8.6-3.4
			L169.2,69.8L169.2,69.8z"/>
		<path class="st0" d="M174.1,130.2l15.4-49.4c0.7-2.5,1.8-4.6,3.1-6.3c1.3-1.7,2.8-3,4.4-3.9s3.4-1.3,5.1-1.3c2.7,0,5.2,1,7.6,3
			c2.3,2,4,4.8,5.1,8.5l16.5,49.4h-20.9l-3.3-11h-19.8l-3.3,11L174.1,130.2L174.1,130.2z M204.9,110.5l-7.7-23.1l-6.6,23.1H204.9z"
			/>
		<path class="st0" d="M225,68.7h51.6v12.1h-15.4v49.4h-20.9V80.8H225V68.7z"/>
		<path class="st0" d="M283.7,68.7h20.9v61.5h-20.9V68.7z"/>
		<path class="st0" d="M311.7,68.7h20.9l13.2,46.1l12.1-46.1h11l-15.4,53.8c-0.8,2.9-2.4,5.2-4.9,6.8s-5.3,2.5-8.3,2.5
			c-3.1,0-5.9-0.9-8.3-2.7c-2.4-1.8-4.1-4.4-4.8-7.8L311.7,68.7z"/>
		<path class="st0" d="M413.7,69.8v8.8h-14.3c-2.7,0-4.4,0.6-5.3,1.7c-0.9,1.1-1.3,3.1-1.3,6v8.8h18.7v9.9h-18.7v9.9
			c0,2.2,0.5,3.8,1.5,4.9s2.3,1.7,4,1.7h16.5v8.8H383c-3.7,0-6.5-1.2-8.3-3.6s-2.7-5.6-2.7-9.6V83c0-4.2,1.1-7.5,3.4-9.7
			c2.3-2.3,5.2-3.4,8.6-3.4L413.7,69.8L413.7,69.8z"/>
		<path class="st0" d="M460.4,67.1h17.5v26.6h19V67.1h17.5v63.1h-17.5v-28.1h-19v28.1h-17.5V67.1z"/>
		<path class="st0" d="M553.2,68.7c5.3,0,9.9,0.9,13.8,2.6c4,1.7,7.2,4,9.6,6.9s4.3,6.1,5.5,9.7s1.8,7.3,1.8,11.2c0,1.1,0,2-0.1,2.5
			c-0.3,5.2-1.8,10.1-4.5,14.7s-6.3,8.2-10.7,10.9s-9.3,4-14.7,4c-0.9,0-1.5,0-1.9-0.1c-6.4-0.3-11.8-1.9-16.2-4.7
			c-4.5-2.8-7.8-6.6-10.1-11.2c-2.2-4.7-3.4-10-3.4-15.9c0-0.5-0.1-1.2-0.1-2.1c0-5.6,1.3-10.5,3.9-14.8c2.6-4.2,6.3-7.5,11-9.8
			C542,70.4,547.3,69,553.2,68.7z M562,98.4c0-3.2-0.2-6.4-0.7-9.7s-1.3-6.2-2.6-8.6s-3.1-3.6-5.5-3.6c-6.6,0-9.9,8.4-9.9,25.3
			c0,5.2,0.7,10.2,2.1,14.9c1.4,4.7,4,7.1,7.8,7.1c2.7,0,4.6-1.3,5.9-3.9c1.3-2.6,2.1-5.6,2.4-9.1C561.8,107.2,562,103.1,562,98.4z"
			/>
		<path class="st0" d="M590.4,68.7h20.9V106c0,8.8,3.3,13.2,9.9,13.2c4,0,6.6-1.6,7.9-4.7c1.3-3.2,2-7.4,2-12.8v-33h9.9v40.6
			c0,6.5-2,11.8-5.9,15.9c-3.9,4-10,6.1-18.3,6.1c-5.3,0-9.9-0.9-13.8-2.6c-4-1.7-7-4.4-9.2-7.9s-3.3-7.7-3.3-12.6V68.7H590.4z"/>
		<path class="st0" d="M688,68.7v8.8h-14.3c-4.2,0-6.2,1.4-6.2,4.3c0,1.4,0.6,2.8,1.8,4.2c1.2,1.3,2.7,2.2,4.5,2.5
			c4,0.6,7.5,1.6,10.5,3s5.4,3.1,7.3,5c1.9,1.9,3.3,4,4.2,6.3s1.4,4.6,1.4,7c0,3.3-0.9,6.6-2.7,9.8c-1.8,3.2-4.3,5.8-7.5,7.7
			s-6.9,2.9-11,2.9h-25.3v-9.9h18.7c2.3,0,4.2-0.6,5.5-1.8c1.3-1.2,2-2.6,2-4.2c0-1.1-0.4-2.2-1.1-3.2c-0.7-1-1.8-1.9-3.3-2.6
			s-3.3-1.2-5.4-1.4c-6.5-0.8-11.3-3-14.6-6.6s-4.9-7.9-4.9-12.7c0-3.3,0.8-6.4,2.3-9.3s3.6-5.3,6.4-7.1c2.8-1.8,6-2.7,9.8-2.7
			C666.1,68.7,688,68.7,688,68.7z"/>
		<path class="st0" d="M747.4,69.8v8.8h-14.3c-2.7,0-4.4,0.6-5.3,1.7c-0.9,1.1-1.3,3.1-1.3,6v8.8h18.7v9.9h-18.7v9.9
			c0,2.2,0.5,3.8,1.5,4.9s2.3,1.7,4,1.7h16.5v8.8h-31.8c-3.7,0-6.5-1.2-8.3-3.6s-2.7-5.6-2.7-9.6V83c0-4.2,1.1-7.5,3.4-9.7
			c2.3-2.3,5.2-3.4,8.6-3.4L747.4,69.8L747.4,69.8z"/>
	</g>
</g>
</svg>
