<?xml version="1.0" encoding="utf-8"?>
<!-- Generator: Adobe Illustrator 24.2.3, SVG Export Plug-In . SVG Version: 6.00 Build 0)  -->
<svg version="1.1" id="Layer_1" xmlns="http://www.w3.org/2000/svg" xmlns:xlink="http://www.w3.org/1999/xlink" x="0px" y="0px"
	 viewBox="0 0 221 201" style="enable-background:new 0 0 221 201;" xml:space="preserve">
<style type="text/css">
	.st0{fill:#231F20;stroke:#000000;stroke-width:0.5;stroke-linecap:round;stroke-linejoin:round;stroke-miterlimit:10;}
</style>
<path d="M26.3,100.3c0.4-4.1,0.3-8.4,1.5-12.2c1.7-5.3,2.9-11,6.7-15.4c2.9-3.4,5.6-7.1,8.8-10.2c2-1.9,1.4-2.9,0.1-4.5
	c-5.9-7.4-11.6-14.9-17.5-22.2c-1.6-2-1.6-3.2,0.5-4.8c4.5-3.5,8.9-7.1,13.4-10.6c1.4-1.1,2-2.2,2.1-3.9c0.1-0.9,0.9-2.2,1.5-2.3
	c1.3-0.2,3.4-0.3,4.1,0.5c4.3,4.9,8.4,10,12.4,15.1c3.2,4.2,6.1,8.6,9.4,12.8c1.3,1.7,3.4,2.3,5.7,1.5c3.2-1.1,6.4-2.3,9.7-2.9
	c5.1-0.9,10.3-1,15.3-2.1c5.4-1.1,10.8-2,16-0.6c5.9,1.6,12.4,0.5,18,3.9c1.9,1.2,4.6,1.1,7-0.9c4.6-3.8,9.8-6.8,14.5-10.5
	c5.5-4.2,10.9-8.7,16.2-13.2c2.6-2.2,7.3-2.2,9.3,1c2.5,4.2,5.8,8,9,11.7c0.8,0.9,2.3,1.2,3.5,1.8c2.6,1.4,2.8,3.8,0.5,5.5
	c-7,5.1-14.1,10.3-21,15.5c-3.4,2.6-3.2,5.7-0.1,8.5c3.9,3.6,7.9,7.2,11.4,11.3c2.1,2.5,3.3,5.8,4.7,8.8c1.6,3.5,3.3,7.1,4.3,10.9
	c0.8,2.9,0.7,6,0.8,9c0.1,1.3-0.3,2.7-0.2,4c0.5,5.2-1.2,9.8-3.8,14.1c-0.1,0.2-0.3,0.5-0.3,0.7c-0.9,7.6-6.4,12.3-11.2,17.3
	c-1.7,1.8-1.5,3.7-0.6,4.9c2.7,4,5.8,7.8,8.9,11.6c2.6,3.2,5.4,6.2,7.9,9.5c0.5,0.7,0.3,2.7-0.3,3.4c-1.5,1.7-3.4,3-5.2,4.4
	c-4.5,3.5-10,5.8-12.5,11.6c-0.4,0.9-2.1,1.4-3.2,1.6c-0.6,0.1-1.6-0.7-2-1.4c-2.5-3.6-4.8-7.3-7.3-10.8c-2.4-3.3-5.1-6.4-7.7-9.7
	c-1.2-1.5-2.1-3.2-3.5-4.5c-1.3-1.3-2.9-1.9-5-1.1c-5.6,2-11.2,4.5-17,5.4c-10.1,1.6-20.3,2.1-30.5,0.9c-3.3-0.4-6.6-0.5-9.8-1.2
	c-2.9-0.6-6-1.2-8.3-2.8c-3.2-2.2-5.4-0.7-7.7,1c-5.5,4-11,8.2-16.5,12.3c-3.3,2.5-6.6,5.2-9.9,7.7c-0.9,0.7-2,1.2-3,1.8
	c-2.6,1.6-4,1.3-5.6-1.2c-2.3-3.7-4.6-7.4-8.3-9.9c-0.4-0.3-0.6-0.8-0.8-1.3c-0.6-2.3-2-3.6-4.5-3.5c-0.8,0-1.5-0.4-2.3-0.7
	c-1.7-0.6-1.6-1.6-0.4-2.6c4-3,8.3-5.7,11.9-9.1c3.3-3.1,7.6-4.5,10.7-7.9c1.5-1.6,8-5.8,10.3-7.9c2.5-2.3,5.4-4.3,8.1-6.3
	c3.4-2.5,6.8-5,10.1-7.5c1.6-1.2,3.1-2.7,4.7-3.9c6.6-5.2,13.3-10.4,19.9-15.6c1.3-1,2.8-1.8,3.9-3c1-1,2.3-2.5,2.1-3.4
	c-0.4-1.9-1.7-3.6-2.8-5.3c-0.6-0.9-1.6-1.7-2.6-2.3c-0.6-0.4-1.8-0.6-2.2-0.2c-3,2.3-5.9,4.8-8.9,7.2c-1.9,1.5-3.7,3.2-5.7,4.5
	c-1.9,1.2-4.9,0.2-6.2-1.6c-3.3-4.5-6.8-9-10.2-13.5c-4.2-5.6-8.3-11.2-12.5-16.7c-1.7-2.1-3.5-4.2-5.5-6c-1.3-1.3-2.5-1.2-4.3,0.3
	c-4.6,4-7.6,9.2-10.5,14.4c-1.4,2.5-2.6,5.4-3,8.2c-1.2,9-2.1,18,0.7,26.8c0.8,2.7,2.6,5.1,4,7.7c1,1.8,2.2,3.4,3,5.3
	c1.1,2.8,3.3,4.5,5.2,6.6c0.6,0.7,0.9,1.8,1.3,2.7c-1.1,0-2.2,0.2-3.2-0.1c-0.6-0.2-1.2-0.9-1.6-1.5c-2.9-4.2-5.8-8.5-8.6-12.8
	c-0.2-0.3-0.5-0.7-0.5-1.1C29.7,114.2,24.7,108,26.3,100.3z M189.7,100.4c0.1,0,0.3-0.1,0.4-0.1c-0.2-2.2-0.2-4.5-0.5-6.6
	c-0.4-2.9-0.6-6-1.8-8.5c-2.2-4.6-5.1-8.8-7.8-13.2c-0.4-0.7-1.1-1.4-1.7-2c-3.4-3.4-7-6.7-10.3-10.2c-1.1-1.2-1.6-1-2.8-0.3
	c-3.8,2.3-6.6,5.9-10.7,7.9c-4.6,2.3-8.4,6.3-12.6,9.4c-1.5,1.2-3.3,2-4.7,3.2c-2.8,2.4-5.5,5-8.3,7.5c-3.7,3.2-7.5,6.3-11.3,9.5
	c-2.2,1.8-2.2,4-1,6.3c0.5,0.9,1.2,1.7,1.7,2.6c1.7,2.8,3.6,3.3,6,1.3c3.7-3.1,7.4-6.2,11-9.4c2.3-2,5.2-2.4,7.4-0.3
	c2.6,2.6,5.7,5.2,7.2,8.4c2.6,5.7,7.3,9.6,10.6,14.7c3.3,5.2,8.3,9.2,11.1,14.9c1.1,2.3,4.3,2.7,5.6,1c6.1-7.7,11.9-15.4,12.5-25.8
	c0-0.9,0.5-1.8,0.7-2.7c0.2-1.7,0.5-3.5,0.4-5.2C190.7,102.2,190.1,101.3,189.7,100.4z M112.5,162.8c5.4-1.1,10.9,0.8,16.3-1.5
	c4.5-1.9,9.6-2.4,14.4-3.5c0.9-0.2,1.8-0.4,2.7-0.8c2.3-1.1,2.8-3.2,1.2-5.1c-1.7-2.1-3.5-4.1-5.1-6.2c-2.5-3.5-4.6-7.3-7.3-10.6
	c-3.5-4.3-7-8.5-10.2-13.1c-3.8-5.5-7.8-10.9-11.9-16.1c-0.8-1-3.4-1.8-4.2-1.2c-2.4,1.5-4.9,3.3-6.2,5.7c-1.1,2,0.7,5.4,2.3,6.3
	c4.4,2.6,5.4,7.6,8.8,10.7c2.1,1.9,0.9,3-0.5,4c-2.9,2.1-4.4,6.2-8.7,6.5c-0.2,0-0.4,0.7-0.7,0.9c-2.8,1.7-4.9,4-7.1,6.3
	c-2.9,3-6.8,4.9-10.1,7.5c-1.2,0.9-2.3,2.2-3,3.5c-0.3,0.5,0.3,2.1,1,2.4c1.8,0.8,3.8,1.5,5.8,1.8c6.4,1.2,12.8,3.1,19.4,2.6
	C110.4,162.7,111.5,162.8,112.5,162.8z M110.2,39.7c-7.5,0.7-14.8,1.1-21.9,3.4c-3.5,1.2-7.2,1.9-10.8,2.9c-2.3,0.7-3,3.5-1.4,5.5
	c1.6,1.9,3.1,3.9,4.6,5.9c2.1,2.7,4,5.5,6.1,8.3c1.8,2.3,3.7,4.6,5.5,6.9c0.8,1,1.6,2,2.4,3c1.8,2.2,4.2,4.1,5.2,6.5
	c2.2,5.1,6.6,8.4,9.7,12.7c0.3,0.5,1.8,0.7,2.4,0.4c1.4-0.8,2.7-2,4-3.1c2.1-1.9,2.4-4.4,0.7-6.6c-2.6-3.5-5.4-6.8-8-10.3
	c-1.2-1.6-2.2-3.5-2.7-5.4c-0.2-0.7,0.8-2.5,1.5-2.7c4.3-1.3,6.2-5.9,10.6-7c0.6-2.5,3.7-1.7,4.6-3.2c2.2-3.8,6.2-5.3,9.2-8
	c1-0.9,1.6-2.5,1.7-3.8c0-0.7-1.5-1.8-2.4-2C124.3,41.8,117.3,40.8,110.2,39.7z M156,51.7c-0.8,0.1-1.1,0.2-1.3,0.2
	c-1.4,0.3-6.7,6.1-6.8,7.5c0,0.5,0.3,1,0.6,1.4c0.4,0.7,1.2,1.3,1.4,2c0.5,1.7,1.7,1.7,2.8,1c1.9-1.2,3.9-2.5,5.5-4.1
	c1.6-1.5,1.6-3.6,0.4-5.4C157.8,53.2,156.7,52.4,156,51.7z M172.7,46.1c-0.7-1.3-1.4-2.6-2.3-3.7c-0.4-0.5-1.6-0.8-2.2-0.6
	c-1.5,0.7-2.8,1.7-4.2,2.7c-2,1.4-2.9,5-1.3,7.4c0.5,0.9,2.5,1.3,3.6,1.2C169.4,52.6,172,49.4,172.7,46.1z M54.6,52
	c-1.3-2.1-2.5-3.7-3.4-5.4c-1-1.9-2.7-3.6-4.5-2.6c-1.3,0.7-2.3,3.2-2.2,4.9c0,3.5,3.4,5.3,5.2,7.9c0.1,0.2,1.1,0.1,1.4-0.1
	C52.1,55.2,53.2,53.8,54.6,52z M137,57.2c-0.1-0.5-0.3-1.9-0.9-2.9c-0.3-0.6-1.9-1.1-2.4-0.8c-2,1.4-4.1,2.8-5.4,4.7
	c-0.8,1.3-0.7,3.5-0.2,5.1c0.2,0.9,2,1.9,3,2C133.3,65.4,137,60.5,137,57.2z M176.2,22c-2.8,0.3-4.4,1.5-6,3.6c-2,2.6-2,5.5,0.6,7.3
	c0.4,0.3,1.4,0.5,1.8,0.2c2.1-1.5,4.2-3,5.9-4.9c0.8-1,1-2.9,0.7-4.3C178.9,23.1,177.2,22.7,176.2,22z M53.3,31.6
	c-0.3-1.3-0.3-1.9-0.6-2.3c-1.5-2-2.9-4.2-4.8-5.8c-0.7-0.6-2.9-0.3-3.8,0.4c-0.9,0.7-1.6,2.6-1.2,3.6c0.6,2,2,3.8,3.2,5.6
	c1.1,1.6,2.8,2.2,4.5,1.4C51.7,33.9,52.5,32.4,53.3,31.6z M74.6,58.2c-1.9-2.4-3.8-4.4-5.2-6.8c-0.8-1.3-1.9-2-2.7-1.2
	c-1.3,1.3-2.5,3.1-2.6,4.7c-0.1,1.6,1,3.5,2.1,4.8c1.3,1.3,3.2,2.8,4.8,2.8C72,62.6,73.1,60.1,74.6,58.2z M165.5,35.8
	c-0.6-0.8-1.5-2.4-2.9-3.4c-1.5-1-2.8-0.1-3.8,1.5c-0.8,1.5-2.3,2.6-3.3,4c-0.5,0.7-1.2,2-0.9,2.4c0.9,1.3,2,2.8,3.3,3.2
	C160.5,44.3,165.6,39.4,165.5,35.8z M187.8,166c0.1-2-3.8-8-5.6-8.2c-1.1-0.1-2.6,0.4-3.4,1.2c-0.8,0.8-1.8,2.5-1.4,3.2
	c1.1,2.3,2.7,4.5,4.4,6.4c0.6,0.6,2.4,0.8,3.3,0.4C186.3,168.3,187,166.9,187.8,166z M186.6,36.6c-0.2-4.5-2.7-6.1-5.7-4.4
	c-1.4,0.8-2.8,1.9-3.9,3.1c-1.3,1.3-1.1,5.1,0.4,6.7c1.6,1.8,2.9,0.8,4.2-0.6c0.7-0.7,2-0.8,2.7-1.5
	C185.3,38.6,186.1,37.2,186.6,36.6z M45,161.1c0.1-2.3-1.6-4.1-3.9-4.2c-2.4-0.1-7.3,4-7.2,6c0,1.6,2.4,4.3,3.9,4.5
	C40,167.6,44.9,163.3,45,161.1z M166.4,138.6c-1.1-2.3-2-4.6-3.3-6.7c-1.7-2.8-2-2.6-4.9-0.7c-1.4,0.9-1.4,1.6-1.4,3.1
	c0,3.2,1.9,5,4,6.7c1,0.8,2.8,1.8,3.5,1.4C165.3,141.8,165.7,140,166.4,138.6z M141.1,50.5c0.1,3.1,2,5,3.9,3.9
	c1.4-0.9,2.8-1.8,4.1-2.8c1.9-1.4,2.7-3.2,2-5.7c-0.6-2-1.6-2.8-3.5-2.7C144.6,43.5,141,47.6,141.1,50.5z M144.8,120.1
	c2.3,3.1,4.1,5.7,6.2,7.9c0.5,0.5,2.8,0.1,3.4-0.6c0.9-1,1.7-2.8,1.4-4c-0.4-1.8-1.6-3.5-3-4.8c-1.2-1.1-3-2.1-4.5-2
	C147.3,116.7,146.3,118.6,144.8,120.1z M177,152.5c0-2-4.1-8.4-5.8-8.8c-0.6-0.1-1.5,0.2-2,0.7c-1.5,1.4-2.3,3-1.3,5.3
	c1.1,2.6,2,5.2,5,5.8C175.3,156,176.9,154.7,177,152.5z M41.9,172.8c0,3.2,1.1,4.3,4.1,3.3c2-0.6,3.7-2.2,5.4-3.5
	c0.7-0.6,1.6-2.4,1.3-2.7c-1.1-1.4-2.5-3.2-4.2-3.6C46.2,165.5,41.9,170.2,41.9,172.8z M167.7,168.1c0.1,3.7,2.7,5.2,4.5,7
	c0.8,0.7,3,0.8,4,0.2c0.8-0.6,1.2-2.6,0.9-3.8c-0.4-1.8-1.7-3.4-2.5-5.1c-0.8-1.9-2.3-2.8-4-1.9
	C169.4,165.2,168.6,166.9,167.7,168.1z M146.5,131.6c-1.8-2.8-3.5-5.5-5.2-8.1c-0.2-0.3-1.3-0.4-1.7-0.2c-2.7,1.2-3.9,4.9-2.3,7.4
	c1.2,1.9,2.9,3.5,4.5,5.1c0.3,0.3,1.5,0.3,1.8,0C144.5,134.7,145.3,133.4,146.5,131.6z M58.3,150.4c-0.6-1.2-1-3-2-3.5
	c-0.8-0.4-2.3,0.7-3.6,1.2c-0.5,0.2-1,0.3-1.4,0.6c-3.2,1.8-4,4.3-2.1,7.5c0.5,0.8,2.1,1.6,3.1,1.5
	C54.9,157.3,57.9,153.3,58.3,150.4z M130.8,76.3c-0.6-0.7-1.5-2.4-2.9-3.1c-0.6-0.3-2.3,1.3-3.4,2.3c-0.8,0.7-1.3,1.9-2.2,2.6
	c-2.1,1.5-1.3,3.2-0.6,4.9c0.9,1.9,2.6,1.4,4.1,0.9C129.1,82.9,130.9,80.5,130.8,76.3z M43.2,38.3c-0.5-2.6-3.4-7.1-5.4-7.4
	c-1.2-0.2-2.7,0.1-3.6,0.8c-0.7,0.6-1,2.3-0.6,3.2c1.1,2.5,2.5,4.8,4,7c0.3,0.5,1.9,0.7,2.3,0.3C41.1,41.1,42.1,39.6,43.2,38.3z
	 M63.6,44.4c-1.2-1.8-2.6-3.4-3.5-5.3c-0.9-1.8-2.3-2.4-3.8-1.8c-1.1,0.4-2.1,1.8-2.5,3c-1,3.1,1.9,4.5,3.3,6.5c1,1.4,2.2,3.1,4,1.9
	C62.3,48,62.7,46.1,63.6,44.4z M65.8,159.5c0-3-1.8-4.7-4.4-3.8c-3.3,1.1-5.6,5.3-5.1,8.7c0.3,1.6,1.1,2.3,2.7,2.2
	C61.2,166.5,65.8,161.7,65.8,159.5z M152.6,149.1c3.7,0,4.7-0.8,4.1-2.9c-0.9-2.9-2.3-5.8-4.1-8.2c-1.1-1.4-3.2-0.8-4.3,1
	c-1.3,2.1-1.2,4.2,0.4,6.2c0.6,0.7,1.2,1.4,1.8,2C151.3,148,152.3,148.8,152.6,149.1z M79.4,83.7c-1.4,1.4-2.6,2.2-3.2,3.3
	c-0.5,0.7-0.7,2.1-0.3,2.8c1.1,1.8,2.5,3.5,3.9,5.1c1.8,2.1,2.7,1.7,4.5-0.5c1.5-1.9,1.6-3.2,0-4.9C82.6,87.8,81.2,85.9,79.4,83.7z
	 M161.7,151.5c-2-0.1-5,2.7-4.4,3.8c1.2,2.3,2.6,4.5,4.1,6.5c1.1,1.5,2.7,2.3,4.4,0.6c1.6-1.5,2.8-3.2,0.9-5.4
	c-1.2-1.5-2.3-3-3.5-4.4C162.8,152.1,162,151.8,161.7,151.5z M64,65.2c-1-2.3-1.5-4.3-2.6-6s-3.7-1.7-5.5-0.6
	c-2.3,1.4-1.7,3.1-0.7,5c0.4,0.8,0.7,1.8,1.3,2.2c1.7,1.2,3.6,2.2,5.4,3.2C62.6,67.8,63.3,66.5,64,65.2z M75.5,132.9
	c0,2.9,2.2,4.6,4.2,3.2c2.1-1.4,4.2-3.1,5.6-5.2c0.5-0.8-0.7-2.9-1.3-4.3c-0.2-0.5-1.2-0.9-1.8-0.9
	C79.7,125.8,75.5,130.4,75.5,132.9z M89.1,122.2c0.4,0.8,1,2.2,1.6,3.5c1.4-0.7,2.8-1.3,4.2-2c0.8-0.4,1.6-0.9,2.2-1.6
	c1.6-1.9,2-4,0.6-6.1c-0.4-0.7-1.5-1.3-2.3-1.3C93.7,114.6,89,119.8,89.1,122.2z M130.8,110.8c-2.8-0.2-4.1,0.5-4.1,2.5
	c-0.1,3.6,1.7,6.3,4.1,8.8c0.4,0.4,1.3,0.4,1.8,0.3c2.4-0.7,3.6-3.9,2.4-6.1c-0.7-1.2-1.3-2.5-2.1-3.6
	C132.1,111.8,131.1,111.1,130.8,110.8z M135.6,108c1.4,2.1,2.7,4.4,4.4,6.3c1.2,1.3,3.7,0.2,4.3-1.5c0.7-2.1-2.2-9.1-4.3-9.7
	c-0.8-0.2-2.2,0.2-2.8,0.8C136.6,104.7,136.4,106.1,135.6,108z M92.2,137.8c-0.3-0.5-0.9-1.9-1.8-3c-0.2-0.2-1.9,1-2.9,1.5
	c-0.6,0.3-1.2,0.6-1.8,0.7c-2.6,0.6-2.4,3-2.8,4.7s2.4,4.2,3.8,3.9C89,145.2,92.2,141.2,92.2,137.8z M71.5,82.1c2.8,0,3.4-2,2.8-3.7
	c-0.7-2.2-2.3-4.2-3.6-6.2c-1.3-2.1-2.7-1.6-4,0c-1.5,1.9-1.3,4.1-0.1,5.9C67.8,79.8,68.6,82.4,71.5,82.1z M85.9,80
	c0,3.7,0.6,5.1,3.6,8c0.5,0.5,0.4,2.7,2,1.1c1.2-1.3,4-1.6,3-4.3c-0.5-1.5-1-3.3-2.1-4.4c-1.2-1.2-2.9-2.2-4.6-2.6
	C87.2,77.7,86.2,79.6,85.9,80z M138.2,74.1c2.4-2,4.8-3.5,6.4-5.6c0.6-0.9-0.5-3.3-1.3-4.8c-0.7-1.3-2.4-0.7-3.2,0
	c-1.7,1.4-3.1,3.3-4.8,4.8c-1.8,1.5,0.5,2.2,0.4,3.4C135.6,72.4,136.9,73,138.2,74.1z M69,152.6c0,2.5,2.6,4.2,4.7,2.9
	c1.7-1.1,3.4-2.4,4.8-3.8c0.6-0.6,0.9-2.1,0.6-2.7c-0.6-1.2-1.7-2.8-2.9-3.1C73.8,145.2,69,149.9,69,152.6z M71.7,139.6
	c-0.3-0.5-0.6-2.2-1.6-2.8c-0.8-0.5-2.6-0.1-3.7,0.4c-1.4,0.8-2.6,2.1-3.6,3.3c-1.3,1.7-0.4,5.8,1.2,6C66.4,147,72,144.1,71.7,139.6
	z M114.4,71.8c0.4,0.6,0.9,2.1,2,3c0.4,0.4,2.1-0.6,3.1-1.2c1.4-0.9,3-1.8,3.7-3.2c0.6-1.3,0.5-3.2,0.1-4.6
	c-0.2-0.7-1.7-1.5-2.6-1.5C118.6,64.3,114.8,68.6,114.4,71.8z M84.8,70.8c-1.8-1.9-3.6-3.5-5.1-5.4c-1.3-1.7-3-1.6-3.9-0.4
	c-0.7,1.1-0.6,3.1-0.2,4.5c0.3,1.3,1.3,2.6,2.3,3.5c1.1,1,2.9,2.4,3.7,2.1C82.9,74.6,83.5,72.7,84.8,70.8z M106.7,128.2
	c-1.2-1.8-1.9-3.4-3.1-4.3c-0.4-0.3-2.1,1-3.2,1.6c-0.5,0.2-1,0.4-1.4,0.7c-1.1,1.2-2.5,2.4-3.2,3.8c-0.3,0.7,0.8,2,1.2,3
	c0.7,1.8,2.2,2.3,3.7,1.1c1.1-0.9,2.2-1.7,3.2-2.7C104.8,130.5,105.6,129.5,106.7,128.2z"/>
<path d="M26.3,100.3c0.4-4.1,0.3-8.4,1.5-12.2c1.7-5.3,2.9-11,6.7-15.4c2.9-3.4,5.6-7.1,8.8-10.2c2-1.9,1.4-2.9,0.1-4.5
	c-5.9-7.4-11.6-14.9-17.5-22.2c-1.6-2-1.6-3.2,0.5-4.8c4.5-3.5,8.9-7.1,13.4-10.6c1.4-1.1,2-2.2,2.1-3.9c0.1-0.9,0.9-2.2,1.5-2.3
	c1.3-0.2,3.4-0.3,4.1,0.5c4.3,4.9,8.4,10,12.4,15.1c3.2,4.2,6.1,8.6,9.4,12.8c1.3,1.7,3.4,2.3,5.7,1.5c3.2-1.1,6.4-2.3,9.7-2.9
	c5.1-0.9,10.3-1,15.3-2.1c5.4-1.1,10.8-2,16-0.6c5.9,1.6,12.4,0.5,18,3.9c1.9,1.2,4.6,1.1,7-0.9c4.6-3.8,9.8-6.8,14.5-10.5
	c5.5-4.2,10.9-8.7,16.2-13.2c2.6-2.2,7.3-2.2,9.3,1c2.5,4.2,5.8,8,9,11.7c0.8,0.9,2.3,1.2,3.5,1.8c2.6,1.4,2.8,3.8,0.5,5.5
	c-7,5.1-14.1,10.3-21,15.5c-3.4,2.6-3.2,5.7-0.1,8.5c3.9,3.6,7.9,7.2,11.4,11.3c2.1,2.5,3.3,5.8,4.7,8.8c1.6,3.5,3.3,7.1,4.3,10.9
	c0.8,2.9,0.7,6,0.8,9c0.1,1.3-0.3,2.7-0.2,4c0.5,5.2-1.2,9.8-3.8,14.1c-0.1,0.2-0.3,0.5-0.3,0.7c-0.9,7.6-6.4,12.3-11.2,17.3
	c-1.7,1.8-1.5,3.7-0.6,4.9c2.7,4,5.8,7.8,8.9,11.6c2.6,3.2,5.4,6.2,7.9,9.5c0.5,0.7,0.3,2.7-0.3,3.4c-1.5,1.7-3.4,3-5.2,4.4
	c-4.5,3.5-10,5.8-12.5,11.6c-0.4,0.9-2.1,1.4-3.2,1.6c-0.6,0.1-1.6-0.7-2-1.4c-2.5-3.6-4.8-7.3-7.3-10.8c-2.4-3.3-5.1-6.4-7.7-9.7
	c-1.2-1.5-2.1-3.2-3.5-4.5c-1.3-1.3-2.9-1.9-5-1.1c-5.6,2-11.2,4.5-17,5.4c-10.1,1.6-20.3,2.1-30.5,0.9c-3.3-0.4-6.6-0.5-9.8-1.2
	c-2.9-0.6-6-1.2-8.3-2.8c-3.2-2.2-5.4-0.7-7.7,1c-5.5,4-11,8.2-16.5,12.3c-3.3,2.5-6.6,5.2-9.9,7.7c-0.9,0.7-2,1.2-3,1.8
	c-2.6,1.6-4,1.3-5.6-1.2c-2.3-3.7-4.6-7.4-8.3-9.9c-0.4-0.3-0.6-0.8-0.8-1.3c-0.6-2.3-2-3.6-4.5-3.5c-0.8,0-1.5-0.4-2.3-0.7
	c-1.7-0.6-1.6-1.6-0.4-2.6c4-3,8.3-5.7,11.9-9.1c2.4-2.3,5.6-3.5,8.2-5.4c1.3-1,2.6-2.1,3.3-3.6c0.6-1.3,8.2-5.7,9.5-6.9
	c2.5-2.3,5.4-4.3,8.1-6.3c3.4-2.5,6.8-5,10.1-7.5c1.6-1.2,3.1-2.7,4.7-3.9c6.6-5.2,13.3-10.4,19.9-15.6c1.3-1,2.8-1.8,3.9-3
	c1-1,2.3-2.5,2.1-3.4c-0.4-1.9-1.7-3.6-2.8-5.3c-0.6-0.9-1.6-1.7-2.6-2.3c-0.6-0.4-1.8-0.6-2.2-0.2c-3,2.3-5.9,4.8-8.9,7.2
	c-1.9,1.5-3.7,3.2-5.7,4.5c-1.9,1.2-4.9,0.2-6.2-1.6c-3.3-4.5-6.8-9-10.2-13.5c-4.2-5.6-8.3-11.2-12.5-16.7c-1.7-2.1-3.5-4.2-5.5-6
	c-1.3-1.3-2.5-1.2-4.3,0.3c-4.6,4-7.6,9.2-10.5,14.4c-1.4,2.5-2.6,5.4-3,8.2c-1.2,9-2.1,18,0.7,26.8c0.8,2.7,2.6,5.1,4,7.7
	c1,1.8,2.2,3.4,3,5.3c1.1,2.8,3.3,4.5,5.2,6.6c0.6,0.7,0.9,1.8,1.3,2.7c-1.1,0-2.2,0.2-3.2-0.1c-0.6-0.2-1.2-0.9-1.6-1.5
	c-2.9-4.2-5.8-8.5-8.6-12.8c-0.2-0.3-0.5-0.7-0.5-1.1C29.7,114.2,24.7,108,26.3,100.3z M189.7,100.4c0.1,0,0.3-0.1,0.4-0.1
	c-0.2-2.2-0.2-4.5-0.5-6.6c-0.4-2.9-0.6-6-1.8-8.5c-2.2-4.6-5.1-8.8-7.8-13.2c-0.4-0.7-1.1-1.4-1.7-2c-3.4-3.4-7-6.7-10.3-10.2
	c-1.1-1.2-1.6-1-2.8-0.3c-3.8,2.3-6.6,5.9-10.7,7.9c-4.6,2.3-8.4,6.3-12.6,9.4c-1.5,1.2-3.3,2-4.7,3.2c-2.8,2.4-5.5,5-8.3,7.5
	c-3.7,3.2-7.5,6.3-11.3,9.5c-2.2,1.8-2.2,4-1,6.3c0.5,0.9,1.2,1.7,1.7,2.6c1.7,2.8,3.6,3.3,6,1.3c3.7-3.1,7.4-6.2,11-9.4
	c2.3-2,5.2-2.4,7.4-0.3c2.6,2.6,5.7,5.2,7.2,8.4c2.6,5.7,7.3,9.6,10.6,14.7c3.3,5.2,8.3,9.2,11.1,14.9c1.1,2.3,4.3,2.7,5.6,1
	c6.1-7.7,11.9-15.4,12.5-25.8c0-0.9,0.5-1.8,0.7-2.7c0.2-1.7,0.5-3.5,0.4-5.2C190.7,102.2,190.1,101.3,189.7,100.4z M112.5,162.8
	c5.4-1.1,10.9,0.8,16.3-1.5c4.5-1.9,9.6-2.4,14.4-3.5c0.9-0.2,1.8-0.4,2.7-0.8c2.3-1.1,2.8-3.2,1.2-5.1c-1.7-2.1-3.5-4.1-5.1-6.2
	c-2.5-3.5-4.6-7.3-7.3-10.6c-3.5-4.3-7-8.5-10.2-13.1c-3.8-5.5-7.8-10.9-11.9-16.1c-0.8-1-3.4-1.8-4.2-1.2c-2.4,1.5-4.9,3.3-6.2,5.7
	c-1.1,2,0.7,5.4,2.3,6.3c4.4,2.6,5.4,7.6,8.8,10.7c2.1,1.9,0.9,3-0.5,4c-2.9,2.1-4.4,6.2-8.7,6.5c-0.2,0-0.4,0.7-0.7,0.9
	c-2.8,1.7-4.9,4-7.1,6.3c-2.9,3-6.8,4.9-10.1,7.5c-1.2,0.9-2.3,2.2-3,3.5c-0.3,0.5,0.3,2.1,1,2.4c1.8,0.8,3.8,1.5,5.8,1.8
	c6.4,1.2,12.8,3.1,19.4,2.6C110.4,162.7,111.5,162.8,112.5,162.8z M110.2,39.7c-7.5,0.7-14.8,1.1-21.9,3.4
	c-3.5,1.2-7.2,1.9-10.8,2.9c-2.3,0.7-3,3.5-1.4,5.5c1.6,1.9,3.1,3.9,4.6,5.9c2.1,2.7,4,5.5,6.1,8.3c1.8,2.3,3.7,4.6,5.5,6.9
	c0.8,1,1.6,2,2.4,3c1.8,2.2,4.2,4.1,5.2,6.5c2.2,5.1,6.6,8.4,9.7,12.7c0.3,0.5,1.8,0.7,2.4,0.4c1.4-0.8,2.7-2,4-3.1
	c2.1-1.9,2.4-4.4,0.7-6.6c-2.6-3.5-5.4-6.8-8-10.3c-1.2-1.6-2.2-3.5-2.7-5.4c-0.2-0.7,0.8-2.5,1.5-2.7c4.3-1.3,6.2-5.9,10.6-7
	c0.6-2.5,3.7-1.7,4.6-3.2c2.2-3.8,6.2-5.3,9.2-8c1-0.9,1.6-2.5,1.7-3.8c0-0.7-1.5-1.8-2.4-2C124.3,41.8,117.3,40.8,110.2,39.7z
	 M156,51.7c-0.8,0.1-1.1,0.2-1.3,0.2c-1.4,0.3-6.7,6.1-6.8,7.5c0,0.5,0.3,1,0.6,1.4c0.4,0.7,1.2,1.3,1.4,2c0.5,1.7,1.7,1.7,2.8,1
	c1.9-1.2,3.9-2.5,5.5-4.1c1.6-1.5,1.6-3.6,0.4-5.4C157.8,53.2,156.7,52.4,156,51.7z M172.7,46.1c-0.7-1.3-1.4-2.6-2.3-3.7
	c-0.4-0.5-1.6-0.8-2.2-0.6c-1.5,0.7-2.8,1.7-4.2,2.7c-2,1.4-2.9,5-1.3,7.4c0.5,0.9,2.5,1.3,3.6,1.2C169.4,52.6,172,49.4,172.7,46.1z
	 M54.6,52c-1.3-2.1-2.5-3.7-3.4-5.4c-1-1.9-2.7-3.6-4.5-2.6c-1.3,0.7-2.3,3.2-2.2,4.9c0,3.5,3.4,5.3,5.2,7.9
	c0.1,0.2,1.1,0.1,1.4-0.1C52.1,55.2,53.2,53.8,54.6,52z M137,57.2c-0.1-0.5-0.3-1.9-0.9-2.9c-0.3-0.6-1.9-1.1-2.4-0.8
	c-2,1.4-4.1,2.8-5.4,4.7c-0.8,1.3-0.7,3.5-0.2,5.1c0.2,0.9,2,1.9,3,2C133.3,65.4,137,60.5,137,57.2z M176.2,22
	c-2.8,0.3-4.4,1.5-6,3.6c-2,2.6-2,5.5,0.6,7.3c0.4,0.3,1.4,0.5,1.8,0.2c2.1-1.5,4.2-3,5.9-4.9c0.8-1,1-2.9,0.7-4.3
	C178.9,23.1,177.2,22.7,176.2,22z M53.3,31.6c-0.3-1.3-0.3-1.9-0.6-2.3c-1.5-2-2.9-4.2-4.8-5.8c-0.7-0.6-2.9-0.3-3.8,0.4
	c-0.9,0.7-1.6,2.6-1.2,3.6c0.6,2,2,3.8,3.2,5.6c1.1,1.6,2.8,2.2,4.5,1.4C51.7,33.9,52.5,32.4,53.3,31.6z M74.6,58.2
	c-1.9-2.4-3.8-4.4-5.2-6.8c-0.8-1.3-1.9-2-2.7-1.2c-1.3,1.3-2.5,3.1-2.6,4.7c-0.1,1.6,1,3.5,2.1,4.8c1.3,1.3,3.2,2.8,4.8,2.8
	C72,62.6,73.1,60.1,74.6,58.2z M165.5,35.8c-0.6-0.8-1.5-2.4-2.9-3.4c-1.5-1-2.8-0.1-3.8,1.5c-0.8,1.5-2.3,2.6-3.3,4
	c-0.5,0.7-1.2,2-0.9,2.4c0.9,1.3,2,2.8,3.3,3.2C160.5,44.3,165.6,39.4,165.5,35.8z M187.8,166c0.1-2-3.8-8-5.6-8.2
	c-1.1-0.1-2.6,0.4-3.4,1.2c-0.8,0.8-1.8,2.5-1.4,3.2c1.1,2.3,2.7,4.5,4.4,6.4c0.6,0.6,2.4,0.8,3.3,0.4
	C186.3,168.3,187,166.9,187.8,166z M186.6,36.6c-0.2-4.5-2.7-6.1-5.7-4.4c-1.4,0.8-2.8,1.9-3.9,3.1c-1.3,1.3-1.1,5.1,0.4,6.7
	c1.6,1.8,2.9,0.8,4.2-0.6c0.7-0.7,2-0.8,2.7-1.5C185.3,38.6,186.1,37.2,186.6,36.6z M45,161.1c0.1-2.3-1.6-4.1-3.9-4.2
	c-2.4-0.1-7.3,4-7.2,6c0,1.6,2.4,4.3,3.9,4.5C40,167.6,44.9,163.3,45,161.1z M166.4,138.6c-1.1-2.3-2-4.6-3.3-6.7
	c-1.7-2.8-2-2.6-4.9-0.7c-1.4,0.9-1.4,1.6-1.4,3.1c0,3.2,1.9,5,4,6.7c1,0.8,2.8,1.8,3.5,1.4C165.3,141.8,165.7,140,166.4,138.6z
	 M141.1,50.5c0.1,3.1,2,5,3.9,3.9c1.4-0.9,2.8-1.8,4.1-2.8c1.9-1.4,2.7-3.2,2-5.7c-0.6-2-1.6-2.8-3.5-2.7
	C144.6,43.5,141,47.6,141.1,50.5z M144.8,120.1c2.3,3.1,4.1,5.7,6.2,7.9c0.5,0.5,2.8,0.1,3.4-0.6c0.9-1,1.7-2.8,1.4-4
	c-0.4-1.8-1.6-3.5-3-4.8c-1.2-1.1-3-2.1-4.5-2C147.3,116.7,146.3,118.6,144.8,120.1z M177,152.5c0-2-4.1-8.4-5.8-8.8
	c-0.6-0.1-1.5,0.2-2,0.7c-1.5,1.4-2.3,3-1.3,5.3c1.1,2.6,2,5.2,5,5.8C175.3,156,176.9,154.7,177,152.5z M41.9,172.8
	c0,3.2,1.1,4.3,4.1,3.3c2-0.6,3.7-2.2,5.4-3.5c0.7-0.6,1.6-2.4,1.3-2.7c-1.1-1.4-2.5-3.2-4.2-3.6C46.2,165.5,41.9,170.2,41.9,172.8z
	 M167.7,168.1c0.1,3.7,2.7,5.2,4.5,7c0.8,0.7,3,0.8,4,0.2c0.8-0.6,1.2-2.6,0.9-3.8c-0.4-1.8-1.7-3.4-2.5-5.1c-0.8-1.9-2.3-2.8-4-1.9
	C169.4,165.2,168.6,166.9,167.7,168.1z M146.5,131.6c-1.8-2.8-3.5-5.5-5.2-8.1c-0.2-0.3-1.3-0.4-1.7-0.2c-2.7,1.2-3.9,4.9-2.3,7.4
	c1.2,1.9,2.9,3.5,4.5,5.1c0.3,0.3,1.5,0.3,1.8,0C144.5,134.7,145.3,133.4,146.5,131.6z M58.3,150.4c-0.6-1.2-1-3-2-3.5
	c-0.8-0.4-2.3,0.7-3.6,1.2c-0.5,0.2-1,0.3-1.4,0.6c-3.2,1.8-4,4.3-2.1,7.5c0.5,0.8,2.1,1.6,3.1,1.5
	C54.9,157.3,57.9,153.3,58.3,150.4z M130.8,76.3c-0.6-0.7-1.5-2.4-2.9-3.1c-0.6-0.3-2.3,1.3-3.4,2.3c-0.8,0.7-1.3,1.9-2.2,2.6
	c-2.1,1.5-1.3,3.2-0.6,4.9c0.9,1.9,2.6,1.4,4.1,0.9C129.1,82.9,130.9,80.5,130.8,76.3z M43.2,38.3c-0.5-2.6-3.4-7.1-5.4-7.4
	c-1.2-0.2-2.7,0.1-3.6,0.8c-0.7,0.6-1,2.3-0.6,3.2c1.1,2.5,2.5,4.8,4,7c0.3,0.5,1.9,0.7,2.3,0.3C41.1,41.1,42.1,39.6,43.2,38.3z
	 M63.6,44.4c-1.2-1.8-2.6-3.4-3.5-5.3c-0.9-1.8-2.3-2.4-3.8-1.8c-1.1,0.4-2.1,1.8-2.5,3c-1,3.1,1.9,4.5,3.3,6.5c1,1.4,2.2,3.1,4,1.9
	C62.3,48,62.7,46.1,63.6,44.4z M65.8,159.5c0-3-1.8-4.7-4.4-3.8c-3.3,1.1-5.6,5.3-5.1,8.7c0.3,1.6,1.1,2.3,2.7,2.2
	C61.2,166.5,65.8,161.7,65.8,159.5z M152.6,149.1c3.7,0,4.7-0.8,4.1-2.9c-0.9-2.9-2.3-5.8-4.1-8.2c-1.1-1.4-3.2-0.8-4.3,1
	c-1.3,2.1-1.2,4.2,0.4,6.2c0.6,0.7,1.2,1.4,1.8,2C151.3,148,152.3,148.8,152.6,149.1z M79.4,83.7c-1.4,1.4-2.6,2.2-3.2,3.3
	c-0.5,0.7-0.7,2.1-0.3,2.8c1.1,1.8,2.5,3.5,3.9,5.1c1.8,2.1,2.7,1.7,4.5-0.5c1.5-1.9,1.6-3.2,0-4.9C82.6,87.8,81.2,85.9,79.4,83.7z
	 M161.7,151.5c-2-0.1-5,2.7-4.4,3.8c1.2,2.3,2.6,4.5,4.1,6.5c1.1,1.5,2.7,2.3,4.4,0.6c1.6-1.5,2.8-3.2,0.9-5.4
	c-1.2-1.5-2.3-3-3.5-4.4C162.8,152.1,162,151.8,161.7,151.5z M64,65.2c-1-2.3-1.5-4.3-2.6-6s-3.7-1.7-5.5-0.6
	c-2.3,1.4-1.7,3.1-0.7,5c0.4,0.8,0.7,1.8,1.3,2.2c1.7,1.2,3.6,2.2,5.4,3.2C62.6,67.8,63.3,66.5,64,65.2z M75.5,132.9
	c0,2.9,2.2,4.6,4.2,3.2c2.1-1.4,4.2-3.1,5.6-5.2c0.5-0.8-0.7-2.9-1.3-4.3c-0.2-0.5-1.2-0.9-1.8-0.9
	C79.7,125.8,75.5,130.4,75.5,132.9z M89.1,122.2c0.4,0.8,1,2.2,1.6,3.5c1.4-0.7,2.8-1.3,4.2-2c0.8-0.4,1.6-0.9,2.2-1.6
	c1.6-1.9,2-4,0.6-6.1c-0.4-0.7-1.5-1.3-2.3-1.3C93.7,114.6,89,119.8,89.1,122.2z M130.8,110.8c-2.8-0.2-4.1,0.5-4.1,2.5
	c-0.1,3.6,1.7,6.3,4.1,8.8c0.4,0.4,1.3,0.4,1.8,0.3c2.4-0.7,3.6-3.9,2.4-6.1c-0.7-1.2-1.3-2.5-2.1-3.6
	C132.1,111.8,131.1,111.1,130.8,110.8z M135.6,108c1.4,2.1,2.7,4.4,4.4,6.3c1.2,1.3,3.7,0.2,4.3-1.5c0.7-2.1-2.2-9.1-4.3-9.7
	c-0.8-0.2-2.2,0.2-2.8,0.8C136.6,104.7,136.4,106.1,135.6,108z M92.2,137.8c-0.3-0.5-0.9-1.9-1.8-3c-0.2-0.2-1.9,1-2.9,1.5
	c-0.6,0.3-1.2,0.6-1.8,0.7c-2.6,0.6-2.4,3-2.8,4.7s2.4,4.2,3.8,3.9C89,145.2,92.2,141.2,92.2,137.8z M71.5,82.1c2.8,0,3.4-2,2.8-3.7
	c-0.7-2.2-2.3-4.2-3.6-6.2c-1.3-2.1-2.7-1.6-4,0c-1.5,1.9-1.3,4.1-0.1,5.9C67.8,79.8,68.6,82.4,71.5,82.1z M85.9,80
	c0,3.7,0.6,5.1,3.6,8c0.5,0.5,0.4,2.7,2,1.1c1.2-1.3,4-1.6,3-4.3c-0.5-1.5-1-3.3-2.1-4.4c-1.2-1.2-2.9-2.2-4.6-2.6
	C87.2,77.7,86.2,79.6,85.9,80z M138.2,74.1c2.4-2,4.8-3.5,6.4-5.6c0.6-0.9-0.5-3.3-1.3-4.8c-0.7-1.3-2.4-0.7-3.2,0
	c-1.7,1.4-3.1,3.3-4.8,4.8c-1.8,1.5,0.5,2.2,0.4,3.4C135.6,72.4,136.9,73,138.2,74.1z M69,152.6c0,2.5,2.6,4.2,4.7,2.9
	c1.7-1.1,3.4-2.4,4.8-3.8c0.6-0.6,0.9-2.1,0.6-2.7c-0.6-1.2-1.7-2.8-2.9-3.1C73.8,145.2,69,149.9,69,152.6z M71.7,139.6
	c-0.3-0.5-0.6-2.2-1.6-2.8c-0.8-0.5-2.6-0.1-3.7,0.4c-1.4,0.8-2.6,2.1-3.6,3.3c-1.3,1.7-0.4,5.8,1.2,6C66.4,147,72,144.1,71.7,139.6
	z M114.4,71.8c0.4,0.6,0.9,2.1,2,3c0.4,0.4,2.1-0.6,3.1-1.2c1.4-0.9,3-1.8,3.7-3.2c0.6-1.3,0.5-3.2,0.1-4.6
	c-0.2-0.7-1.7-1.5-2.6-1.5C118.6,64.3,114.8,68.6,114.4,71.8z M84.8,70.8c-1.8-1.9-3.6-3.5-5.1-5.4c-1.3-1.7-3-1.6-3.9-0.4
	c-0.7,1.1-0.6,3.1-0.2,4.5c0.3,1.3,1.3,2.6,2.3,3.5c1.1,1,2.9,2.4,3.7,2.1C82.9,74.6,83.5,72.7,84.8,70.8z M106.7,128.2
	c-1.2-1.8-1.9-3.4-3.1-4.3c-0.4-0.3-2.1,1-3.2,1.6c-0.5,0.2-1,0.4-1.4,0.7c-1.1,1.2-2.5,2.4-3.2,3.8c-0.3,0.7,0.8,2,1.2,3
	c0.7,1.8,2.2,2.3,3.7,1.1c1.1-0.9,2.2-1.7,3.2-2.7C104.8,130.5,105.6,129.5,106.7,128.2z"/>
</svg>
